<?xml version="1.0" standalone="no"?>
<!DOCTYPE svg PUBLIC "-//W3C//DTD SVG 20010904//EN"
 "http://www.w3.org/TR/2001/REC-SVG-20010904/DTD/svg10.dtd">
<svg version="1.0" xmlns="http://www.w3.org/2000/svg"
 width="1000.000000pt" height="1000.000000pt" viewBox="0 0 1000.000000 1000.000000"
 preserveAspectRatio="xMidYMid meet">
<metadata>
Created by potrace 1.16, written by Peter Selinger 2001-2019
</metadata>
<g transform="translate(0.000000,1000.000000) scale(0.100000,-0.100000)"
fill="#000000" stroke="none">
<path d="M5538 9295 c-2 -3 -87 -12 -189 -20 -101 -8 -190 -18 -198 -20 -8 -3
-30 -8 -50 -11 -70 -10 -189 -87 -340 -219 -176 -154 -262 -233 -424 -389
-340 -327 -342 -328 -421 -357 -267 -99 -501 -228 -655 -365 -92 -81 -242
-245 -281 -308 -13 -21 -43 -57 -68 -80 -136 -125 -353 -405 -459 -591 -158
-277 -219 -443 -329 -895 -32 -132 -32 -754 0 -885 3 -11 14 -59 25 -107 27
-118 55 -212 89 -294 18 -42 31 -98 36 -144 5 -61 35 -219 49 -265 49 -159 79
-251 92 -280 129 -310 265 -513 441 -656 70 -58 75 -69 138 -340 19 -81 39
-156 45 -167 5 -10 19 -61 31 -113 11 -52 33 -134 49 -184 16 -49 42 -133 56
-185 29 -102 137 -430 179 -545 41 -111 80 -182 158 -291 101 -139 137 -181
262 -306 124 -124 165 -155 256 -192 36 -15 110 -49 165 -76 124 -61 161 -72
527 -164 408 -103 481 -116 708 -128 388 -21 455 -17 610 35 36 11 67 21 70
22 16 1 174 95 232 137 62 45 168 158 168 179 0 11 -24 2 -162 -64 -114 -55
-192 -83 -258 -93 -19 -3 -62 -9 -95 -15 -206 -32 -298 4 -415 161 -118 160
-208 382 -260 640 -54 270 -109 717 -111 894 0 39 -8 124 -17 189 l-18 117 32
0 c18 0 71 12 120 26 219 63 351 179 396 349 10 37 9 56 -2 102 -10 40 -15
106 -14 213 2 165 16 257 70 462 l28 106 96 37 c199 76 252 132 432 450 42 75
148 304 162 352 7 23 21 27 116 38 74 8 90 19 143 97 114 166 141 292 97 437
-11 36 -25 85 -30 108 -9 38 -18 47 -84 88 l-73 45 -6 188 c-5 186 -29 369
-61 477 -36 119 -115 231 -219 312 l-28 22 26 133 c48 238 103 375 178 444 48
45 57 71 57 164 0 154 -101 309 -277 425 -24 15 -43 30 -43 33 0 2 39 57 88
122 48 64 114 154 147 200 81 112 224 273 323 365 71 64 91 77 152 96 58 17
87 20 158 16 92 -5 103 -7 191 -33 78 -22 118 -45 181 -104 62 -57 203 -155
238 -165 20 -6 22 -3 22 32 0 30 -13 60 -56 129 -31 49 -66 112 -79 139 -28
64 -131 163 -210 203 -72 36 -170 67 -244 77 -30 4 -84 20 -120 35 -142 60
-413 109 -731 130 -91 6 -229 15 -307 20 -148 10 -496 14 -505 5z m-978 -736
c0 -6 9 -9 19 -6 25 6 31 -19 13 -55 -18 -38 -31 -43 -47 -22 -13 17 -14 17
-15 2 0 -12 -5 -15 -15 -11 -10 3 -15 0 -13 -8 2 -8 -4 -13 -14 -13 -10 1 -18
-3 -18 -8 0 -6 -9 -8 -20 -5 -11 3 -23 1 -26 -5 -4 -5 -19 -7 -35 -4 -18 3
-33 0 -42 -9 -8 -8 -17 -11 -21 -8 -3 4 -6 1 -6 -5 0 -6 -6 -9 -14 -6 -8 3
-17 1 -21 -5 -13 -21 -25 -10 -25 22 0 23 8 41 26 58 l27 24 -18 -28 c-29 -45
-7 -45 33 1 38 43 104 77 177 92 56 11 55 11 55 -1z m-635 -308 c-6 -4 -44
-33 -85 -63 -41 -30 -113 -91 -160 -136 l-85 -82 50 16 c28 8 70 21 95 28 40
11 45 16 52 50 5 21 22 55 40 74 17 20 29 32 27 27 -3 -6 -15 -32 -28 -58 -31
-65 -21 -81 16 -26 45 65 78 92 115 94 18 1 62 6 98 10 111 12 131 12 156 -1
23 -12 34 -12 82 2 27 8 30 -11 5 -38 -15 -17 -15 -18 6 -18 13 0 39 16 58 35
34 34 59 42 33 10 -7 -8 -11 -15 -9 -16 2 0 13 -2 24 -5 11 -2 81 -6 155 -8
74 -2 146 -7 160 -10 14 -3 63 -11 110 -16 47 -6 118 -20 158 -31 39 -11 77
-17 84 -13 7 4 8 3 4 -4 -5 -8 0 -12 13 -12 15 0 21 7 22 23 0 20 1 20 8 3 5
-14 10 -16 15 -8 4 7 13 9 19 5 7 -5 28 -13 47 -19 28 -10 30 -12 12 -13 -13
-1 -20 -5 -17 -11 4 -6 11 -7 17 -4 8 5 9 1 5 -10 -4 -10 -3 -15 3 -11 6 3 10
2 10 -3 0 -14 38 -22 44 -8 2 6 5 3 5 -6 1 -22 17 -23 29 -2 8 13 13 13 54 -1
25 -8 57 -16 71 -17 24 -2 24 -3 11 -40 -12 -35 -11 -39 6 -48 15 -8 18 -7 15
2 -3 7 6 31 20 53 13 22 37 65 53 95 29 57 82 140 82 128 0 -4 -16 -33 -34
-65 -36 -59 -71 -151 -63 -160 3 -2 15 1 27 7 12 6 28 9 36 6 9 -3 12 -1 9 4
-3 6 -1 10 4 10 6 0 11 -7 11 -16 0 -8 5 -12 10 -9 6 3 10 1 10 -5 0 -6 4 -9
9 -6 4 3 15 0 23 -7 18 -14 13 -88 -6 -82 -6 3 -24 10 -41 16 -30 11 -111 16
-120 7 -3 -3 38 -38 92 -78 74 -55 101 -70 113 -62 8 5 14 19 12 30 -3 22 13
38 22 23 4 -5 23 6 44 25 91 86 242 200 300 227 47 22 71 28 95 23 44 -8 159
-84 229 -151 31 -30 61 -55 67 -55 12 0 60 -70 83 -122 38 -82 45 -217 15
-273 -5 -11 -29 -38 -52 -60 -33 -32 -51 -62 -83 -146 -49 -125 -91 -280 -99
-365 l-6 -60 64 -53 c68 -57 128 -141 164 -230 49 -122 85 -367 85 -590 l1
-126 75 -50 c52 -35 76 -58 80 -75 3 -14 9 -40 14 -59 l9 -35 -29 32 c-31 34
-60 40 -96 19 -27 -16 -81 -77 -94 -108 -9 -21 -10 -19 -7 16 2 22 7 49 12 60
7 18 6 18 -17 -3 l-26 -24 -12 36 c-6 20 -8 41 -4 48 4 6 -9 -1 -29 -16 -25
-19 -37 -36 -37 -53 0 -21 3 -22 20 -13 33 18 21 -28 -20 -75 -9 -11 -20 -34
-23 -51 -3 -18 -9 -44 -13 -59 -4 -18 -3 -26 3 -22 6 4 13 -9 17 -31 10 -60 7
-130 -5 -134 -28 -9 60 -120 111 -141 24 -10 23 -10 -20 -18 -25 -5 -49 -8
-53 -6 -5 1 -20 36 -33 77 -31 91 -60 140 -82 139 -15 -1 -15 -2 1 -6 9 -2 17
-9 17 -14 0 -9 -13 -13 -42 -10 -19 2 -20 -6 -20 -119 0 -44 0 -44 -8 12 -19
121 -20 122 -81 131 l-55 9 -12 63 c-10 56 -9 78 9 171 11 59 31 129 45 156
l25 48 70 -4 c39 -3 73 -7 76 -10 8 -7 23 3 23 15 0 6 -4 7 -10 4 -13 -8 -13
1 1 26 5 11 14 17 19 14 4 -3 16 15 25 39 15 38 21 45 51 48 18 2 41 0 50 -5
35 -20 23 3 -17 32 -55 41 -99 41 -139 2 -28 -26 -34 -28 -68 -19 -20 5 -55
14 -76 19 -22 5 -43 6 -47 2 -11 -11 -60 -220 -111 -471 -35 -171 -40 -205
-28 -212 8 -5 43 -12 77 -16 35 -3 63 -9 63 -11 0 -29 -110 -291 -196 -468
-91 -185 -32 -101 79 115 46 89 74 154 123 285 4 11 6 29 6 40 -1 11 7 2 17
-20 40 -87 122 -126 190 -92 21 11 31 12 30 4 -1 -16 -17 -54 -18 -43 -1 6 -8
1 -17 -10 -8 -10 -13 -13 -9 -7 4 9 1 11 -9 7 -9 -3 -13 -11 -9 -16 4 -7 -12
-9 -46 -6 -44 4 -59 12 -92 44 -23 22 -42 34 -47 29 -5 -6 -28 -55 -52 -110
-74 -172 -119 -266 -192 -398 -48 -88 -71 -141 -72 -167 -1 -21 1 -37 5 -35 3
3 21 -3 39 -11 29 -15 35 -15 68 0 20 10 46 25 58 34 28 24 143 192 195 287
23 42 43 74 45 72 13 -12 -161 -293 -213 -345 -96 -95 -193 -130 -213 -77 -5
14 -12 25 -14 25 -3 0 -54 -19 -113 -42 -59 -23 -108 -40 -109 -37 0 2 -8 -2
-16 -9 -27 -22 -61 16 -62 68 -1 38 2 44 24 50 14 4 60 24 104 44 66 30 78 39
73 56 -3 11 4 36 14 57 10 20 19 33 19 29 0 -21 28 18 34 46 3 17 15 49 25 72
32 67 37 84 39 125 1 15 7 21 16 18 10 -4 12 0 9 14 -3 10 0 19 6 19 6 0 11
12 12 28 0 30 17 77 18 52 3 -48 41 79 57 190 4 25 11 50 16 56 5 7 11 29 13
50 5 42 37 215 62 334 20 101 24 145 29 353 3 113 1 177 -6 177 -6 0 -9 31 -8
74 1 48 -3 80 -11 90 -7 9 -15 44 -17 78 -5 94 -30 221 -35 183 -3 -16 -1 -42
3 -57 8 -35 -9 -47 -22 -16 -5 13 -16 61 -24 108 -9 47 -27 122 -40 168 -26
91 -23 96 39 57 22 -13 43 -25 46 -25 8 0 22 42 18 55 -11 39 -2 82 21 101 40
33 63 43 93 37 20 -4 27 -1 27 11 0 10 -6 13 -15 10 -9 -4 -15 0 -15 7 0 11
-3 11 -10 -1 -8 -12 -11 -13 -19 -1 -5 8 -16 11 -30 6 -14 -4 -21 -2 -21 7 0
7 -11 0 -23 -16 -27 -34 -47 -28 -43 12 1 15 -1 43 -5 62 -5 19 -4 37 0 40 10
7 22 122 12 115 -16 -9 -33 -95 -27 -130 5 -27 4 -35 -8 -35 -10 0 -17 -14
-22 -37 -3 -21 -10 -54 -14 -74 -4 -21 -4 -43 1 -50 8 -14 -6 -39 -22 -39 -5
0 -9 8 -9 18 0 59 -118 310 -211 450 -68 101 -92 118 -36 25 58 -96 127 -242
168 -352 22 -57 39 -106 39 -109 0 -23 -66 91 -135 233 -86 179 -136 265 -210
367 -25 34 -45 69 -45 78 0 15 -40 57 -114 120 -28 24 -28 24 -17 2 6 -12 23
-29 37 -39 46 -30 191 -246 268 -401 87 -174 113 -264 157 -555 15 -100 19
-182 19 -368 0 -259 -8 -363 -45 -565 -82 -444 -281 -876 -566 -1229 -99 -123
-97 -121 -79 -110 22 13 -41 -58 -119 -133 -87 -85 -221 -188 -334 -259 -141
-87 -295 -156 -508 -227 -107 -36 -185 -65 -174 -65 11 0 68 8 128 18 59 9
104 14 100 10 -15 -14 -268 -59 -387 -70 -66 -5 -124 -13 -130 -16 -5 -4 -30
-6 -55 -6 -41 1 -42 0 -16 -7 54 -14 313 -11 424 6 89 13 213 40 319 70 16 5
22 2 22 -10 0 -10 -4 -14 -10 -11 -10 6 -14 -8 -5 -17 3 -3 23 -2 44 2 33 6
38 4 34 -10 -3 -9 3 -25 13 -35 10 -9 19 -29 20 -44 3 -23 2 -24 -10 -9 -11
16 -13 13 -10 -23 2 -31 -1 -39 -11 -35 -8 3 -20 -3 -27 -13 -17 -22 -48 -34
-49 -18 0 9 -2 9 -6 -1 -22 -54 -391 -92 -614 -63 -115 15 -308 61 -366 87
l-53 23 0 -35 c0 -18 -5 -34 -11 -34 -6 0 -9 6 -6 13 11 31 -24 67 -100 102
-79 36 -92 35 -93 -7 0 -10 -4 -18 -10 -18 -11 0 -11 13 -1 50 6 22 0 30 -63
74 -147 100 -288 225 -311 275 -9 20 -46 60 -82 90 l-66 55 7 -40 c14 -78 80
-272 141 -414 34 -80 65 -157 69 -172 3 -14 9 -33 12 -42 13 -33 -19 -13 -98
61 -194 186 -338 442 -437 780 -45 156 -62 230 -76 343 l-6 45 43 -80 c76
-141 241 -373 261 -366 5 1 45 -31 90 -71 128 -114 142 -121 30 -15 -267 255
-440 557 -532 927 -43 175 -60 299 -68 490 -15 426 79 854 277 1255 126 254
270 460 465 665 61 63 133 149 160 190 79 119 242 274 386 369 68 45 130 79
137 76 7 -2 11 -1 8 4 -3 4 6 13 20 20 14 6 23 7 20 3 -3 -5 1 -9 9 -9 8 0 13
5 12 11 -1 6 4 10 11 9 6 -2 12 2 12 7 0 6 5 10 12 10 6 0 20 8 31 18 15 12
19 13 13 2 -4 -8 -1 -7 8 4 8 10 20 15 27 10 8 -4 10 -3 5 4 -4 7 -3 12 3 12
5 0 12 -6 14 -12 3 -8 6 -6 6 5 1 9 6 17 12 17 5 0 7 -6 4 -12 -4 -7 0 -5 8 5
11 14 16 15 20 5 4 -8 6 -7 6 5 1 16 5 19 34 21 6 1 14 4 17 7 3 3 19 13 35
22 33 18 55 22 40 8z m2059 -1637 c33 -186 37 -226 23 -217 -8 5 -8 2 0 -8 14
-17 10 -158 -4 -168 -4 -3 -9 -35 -11 -70 -2 -36 -9 -78 -17 -95 -12 -29 -13
-22 -15 84 -5 386 -10 598 -15 620 -4 19 -3 21 5 9 5 -9 21 -79 34 -155z m596
-1297 c0 -40 21 -96 46 -127 38 -45 81 -42 128 10 20 22 36 35 36 30 0 -6 -15
-27 -34 -48 -30 -32 -40 -37 -77 -36 -28 1 -47 7 -56 20 -7 9 -16 14 -20 10
-4 -4 0 -12 10 -17 18 -11 24 -39 7 -39 -6 0 -18 9 -27 20 -10 11 -25 20 -35
20 -39 0 -60 80 -38 150 7 26 13 20 23 -25 3 -11 5 -4 6 16 0 20 4 39 7 42 11
11 24 -3 24 -26z m-1090 -1068 c0 -4 -11 -54 -24 -111 -62 -263 -80 -446 -72
-721 4 -120 9 -239 13 -265 l6 -47 -22 25 c-18 20 -21 21 -17 6 6 -17 4 -17
-11 -5 -10 7 -15 10 -11 5 4 -5 -1 -16 -10 -25 -12 -10 -12 -13 -2 -6 12 7 13
7 3 -5 -7 -7 -23 -15 -35 -17 -13 -2 -28 -10 -34 -18 -6 -8 -14 -12 -17 -8 -4
3 -7 1 -7 -6 0 -9 -5 -8 -15 3 -13 13 -20 13 -36 3 -10 -6 -17 -18 -14 -25 3
-7 0 -10 -5 -7 -6 3 -10 14 -10 23 0 14 -2 14 -9 3 -7 -11 -11 -10 -20 5 -6
12 -11 14 -11 5 0 -11 -3 -11 -15 -1 -13 11 -14 10 -8 -6 7 -19 6 -19 -21 0
-23 15 -30 16 -37 5 -7 -12 -9 -12 -9 0 0 7 -6 11 -15 7 -19 -7 -73 101 -125
250 -21 61 -46 121 -56 132 -15 19 -18 19 -45 4 -37 -22 -48 -8 -19 23 25 27
50 33 51 13 0 -9 2 -9 5 -2 3 6 -7 51 -21 100 -14 49 -29 123 -32 165 l-6 75
33 14 c43 18 164 97 260 170 94 71 140 101 123 79 -10 -12 -8 -15 10 -14 12 0
32 6 45 13 12 7 22 9 22 5 0 -4 4 -2 9 5 4 7 14 15 22 16 56 11 123 67 141
118 6 17 16 26 29 25 10 -1 19 -4 19 -8z m-49 -393 c-16 -141 -14 -427 4 -529
18 -103 46 -182 78 -219 22 -26 25 -26 42 -10 19 17 19 16 1 -5 -11 -13 -24
-19 -34 -16 -9 4 -13 2 -9 -4 3 -5 1 -10 -6 -11 -7 0 -20 -2 -31 -4 -15 -2
-19 4 -20 37 -1 22 -14 96 -30 165 -35 160 -40 366 -12 568 21 152 33 172 17
28z m-2513 -127 c9 -17 27 -47 40 -67 18 -27 22 -43 17 -70 -14 -75 -47 -93
-70 -39 -13 30 -14 31 -15 7 -2 -25 -2 -24 -15 5 -28 61 -31 196 -5 180 6 -3
10 -1 10 4 0 22 21 10 38 -20z m251 -344 l34 -7 -23 -18 -23 -18 30 -6 c17 -4
34 -6 39 -5 20 3 32 -2 38 -17 5 -14 4 -15 -8 -5 -10 8 -16 9 -21 1 -8 -13 51
-38 110 -47 34 -4 45 -10 45 -23 0 -19 -26 -34 -41 -24 -5 3 -9 -1 -9 -8 0 -8
-5 -6 -11 5 -5 9 -19 17 -29 17 -34 0 -22 -21 20 -37 32 -13 38 -19 28 -30 -6
-8 -17 -12 -25 -9 -7 3 -13 -1 -13 -10 0 -8 4 -13 9 -10 5 3 14 -1 21 -9 7 -8
9 -15 5 -15 -4 0 -2 -7 5 -15 6 -8 9 -18 6 -24 -4 -5 -1 -21 5 -35 11 -23 20
-30 40 -28 3 1 6 -6 6 -13 0 -10 -4 -12 -12 -5 -9 7 -14 6 -18 -4 -4 -9 -1
-13 6 -11 20 8 33 -8 46 -57 12 -42 11 -49 -5 -72 -23 -31 -54 -34 -54 -5 0
11 -9 32 -20 46 -11 14 -20 21 -20 15 0 -6 5 -14 10 -17 6 -3 10 -19 10 -36 0
-37 -22 -38 -92 -3 -44 22 -50 23 -44 8 4 -10 4 -15 0 -11 -18 17 -53 125 -55
166 -1 25 -9 59 -17 75 -15 30 -26 150 -13 142 4 -3 6 14 5 37 -2 27 -7 41
-15 39 -7 -2 -6 7 5 23 18 28 13 51 -5 25 -8 -12 -10 -9 -6 12 2 15 -1 30 -7
33 -6 2 -2 3 9 1 11 -3 35 -8 54 -11z m104 -632 c-4 -9 0 -14 8 -13 37 6 59
-3 90 -35 19 -19 40 -35 47 -35 6 0 12 -8 12 -17 0 -14 -5 -12 -27 8 -16 13
-34 30 -40 38 -7 8 -13 11 -13 7 0 -5 -7 -3 -15 4 -8 7 -15 9 -15 4 1 -5 20
-23 44 -41 35 -26 48 -44 64 -92 11 -33 18 -70 15 -83 -4 -18 -3 -20 6 -8 9
12 11 11 11 -7 0 -13 -5 -23 -11 -23 -8 0 -8 -5 1 -15 7 -8 17 -12 24 -8 6 4
5 -1 -2 -10 -8 -9 -11 -21 -7 -27 3 -5 2 -10 -4 -10 -10 0 -8 -10 6 -50 12
-32 -1 -110 -18 -110 -6 0 -7 6 -3 13 4 6 4 9 -1 5 -4 -4 -15 -2 -24 5 -14 10
-14 10 -5 -3 13 -17 15 -52 2 -44 -4 3 -8 12 -8 20 0 8 -2 14 -4 14 -2 0 -12
3 -22 7 -12 4 -15 3 -10 -6 6 -9 3 -9 -13 1 -24 15 -25 21 -11 49 8 14 8 21
-2 24 -8 3 -13 23 -14 46 0 28 -6 44 -18 51 -11 6 -15 16 -11 29 4 11 2 19 -4
19 -6 0 -11 9 -11 20 0 10 -8 24 -17 30 -14 9 -15 10 -2 7 12 -4 15 0 13 16
-7 51 -16 82 -34 117 -10 20 -16 47 -13 59 4 16 1 21 -16 21 -11 0 -21 4 -21
10 0 5 7 7 15 4 9 -4 15 0 15 9 0 17 18 27 37 20 6 -3 9 -11 6 -20z"/>
<path d="M4110 7779 c-324 -25 -672 -175 -967 -416 -53 -43 -105 -85 -117 -93
-41 -28 -84 -68 -79 -73 3 -3 -5 -3 -18 0 -18 5 -21 3 -16 -10 4 -10 2 -16 -6
-14 -7 1 -11 -4 -9 -11 1 -8 -1 -11 -6 -8 -9 6 -43 -29 -36 -38 2 -3 1 -4 -3
-1 -9 7 -12 45 -2 40 9 -6 43 45 35 52 -3 3 -8 -2 -12 -11 -5 -14 -9 -14 -22
-4 -13 11 -15 10 -9 -5 4 -10 3 -16 -2 -13 -11 7 -23 -22 -15 -35 3 -5 0 -8
-8 -7 -7 2 -12 -3 -10 -10 1 -8 -2 -11 -8 -7 -11 7 7 48 42 98 22 31 16 52 -6
22 -9 -12 -15 -15 -20 -7 -4 7 -2 12 5 12 8 0 8 4 -1 15 -10 12 -16 13 -24 5
-6 -6 -11 -14 -11 -18 0 -4 -9 -20 -20 -35 -21 -30 -56 -72 -41 -50 5 8 7 16
4 19 -3 2 -15 -15 -26 -38 -11 -24 -39 -63 -61 -86 -23 -24 -44 -56 -47 -72
-4 -15 -20 -42 -36 -59 -17 -18 -27 -35 -22 -42 4 -7 3 -9 -3 -6 -11 7 -33
-34 -33 -63 0 -11 -4 -20 -10 -20 -5 0 -10 -4 -10 -10 0 -5 -14 -33 -31 -62
-17 -29 -33 -61 -35 -72 -2 -11 -8 -24 -14 -30 -13 -13 -13 -29 0 -21 6 3 7
-1 4 -9 -3 -9 -10 -16 -15 -16 -5 0 -9 -8 -9 -18 0 -10 -14 -60 -30 -111 -27
-82 -28 -94 -15 -107 16 -17 17 -14 18 48 0 15 4 25 9 22 4 -3 8 2 8 10 0 8 4
17 9 21 6 3 6 -7 1 -27 -6 -17 -8 -34 -6 -36 7 -6 32 48 52 111 10 31 30 72
46 90 l28 32 -25 -51 c-14 -29 -25 -57 -25 -63 0 -6 -4 -11 -10 -11 -5 0 -10
-12 -10 -27 0 -16 -9 -57 -20 -93 -11 -36 -20 -72 -19 -80 0 -8 8 10 18 40
l17 55 6 -35 c3 -19 1 -46 -4 -59 -4 -13 -6 -32 -3 -42 4 -12 1 -19 -7 -19
-10 0 -9 -3 2 -10 10 -6 11 -10 3 -10 -8 0 -13 -13 -13 -32 0 -18 -4 -49 -9
-68 -15 -53 -19 -91 -33 -266 -11 -149 -10 -177 10 -355 26 -229 70 -413 137
-582 26 -65 49 -116 51 -115 1 2 -12 44 -31 94 -47 124 -83 252 -100 354 -17
96 -35 294 -34 355 l1 40 9 -40 c4 -22 8 -60 8 -84 1 -25 6 -85 13 -135 10
-78 13 -87 20 -61 5 17 7 95 4 175 -11 416 70 791 250 1152 113 226 237 401
421 589 62 64 113 121 113 127 0 6 7 9 17 5 11 -4 14 -3 9 5 -4 7 -11 12 -15
12 -8 0 -139 -103 -151 -119 -3 -3 -14 -12 -25 -20 -11 -7 19 25 67 71 113
110 244 202 398 282 226 116 426 169 690 185 74 5 100 9 63 10 -34 0 -67 3
-75 4 -7 2 -56 1 -108 -4z"/>
<path d="M4205 7593 c-139 -13 -371 -81 -508 -149 -585 -294 -1005 -926 -1078
-1622 -16 -159 -7 -446 20 -587 103 -549 459 -982 931 -1133 276 -88 541 -82
855 18 55 18 113 39 128 47 22 11 32 12 43 2 19 -16 9 -28 -24 -28 -43 0 -62
-4 -62 -12 0 -4 -9 -11 -21 -14 -11 -4 -18 -13 -15 -20 6 -17 -23 -28 -39 -15
-9 8 -14 5 -18 -10 -3 -12 -13 -20 -25 -20 -24 0 -38 16 -20 23 9 4 9 6 1 6
-15 1 -43 -27 -43 -44 0 -15 -51 -27 -64 -14 -15 14 -26 11 -20 -6 5 -11 -1
-15 -18 -15 -13 0 -34 -7 -46 -16 -12 -8 -28 -12 -35 -8 -9 5 -9 4 0 -6 19
-21 409 99 493 152 107 68 283 179 318 202 18 11 68 68 112 126 44 58 130 170
190 250 61 80 121 168 135 195 77 161 215 494 238 575 74 266 77 286 83 565 6
263 3 301 -36 455 -5 19 -21 84 -36 144 -24 101 -89 268 -150 388 -14 27 -23
56 -20 64 3 8 0 13 -7 11 -7 -1 -11 6 -11 15 1 10 -2 16 -6 15 -3 -1 -34 32
-68 74 -91 113 -146 172 -215 230 -34 30 -54 44 -44 33 9 -11 15 -23 11 -26
-6 -6 114 -128 126 -128 4 0 10 -8 13 -17 4 -10 14 -28 23 -40 19 -26 4 -31
-20 -7 -9 8 -16 11 -16 5 0 -13 38 -34 49 -27 4 3 20 -8 35 -23 20 -21 24 -30
14 -34 -9 -3 -7 -7 7 -12 25 -9 75 -63 75 -80 0 -7 7 -18 15 -25 8 -7 12 -17
9 -22 -3 -5 1 -15 10 -21 25 -19 77 -130 64 -138 -6 -4 -7 -12 -4 -18 4 -6 11
-9 16 -6 4 3 20 -27 34 -66 30 -82 30 -79 12 -79 -14 0 -26 21 -26 45 0 8 -13
34 -30 58 -16 25 -30 48 -30 51 0 14 -136 215 -192 283 -260 319 -689 494
-1113 456z m110 -60 c-12 -86 -9 -83 -81 -83 l-65 0 3 57 c3 65 11 70 101 72
l48 1 -6 -47z m-157 -25 l-3 -62 -60 -12 c-33 -7 -64 -9 -68 -5 -5 5 -7 32 -5
62 l3 54 60 11 c33 7 64 12 68 13 4 1 7 -27 5 -61z m-153 -24 c4 -31 3 -60 -2
-64 -9 -9 -116 -41 -120 -36 -8 8 -21 102 -14 109 7 7 109 46 122 47 4 0 10
-25 14 -56z m706 41 c24 -9 49 -17 56 -20 9 -3 5 -20 -12 -62 -13 -32 -27 -58
-32 -58 -8 0 -106 27 -111 30 -8 6 33 125 43 125 7 0 32 -7 56 -15z m154 -59
c30 -14 55 -27 55 -31 0 -3 -14 -30 -31 -59 l-30 -55 -50 24 c-28 12 -53 25
-56 29 -8 7 37 116 48 116 5 0 33 -11 64 -24z m-418 -37 c409 -45 745 -294
939 -694 98 -204 144 -392 159 -656 l7 -116 54 10 c74 12 88 -2 79 -81 -11
-93 -6 -88 -81 -82 -36 3 -67 4 -70 1 -2 -2 -3 -20 -3 -40 1 -36 1 -36 8 -6 6
29 8 30 56 27 61 -3 74 -16 68 -64 -5 -35 -8 -38 -38 -38 -57 0 -95 11 -96 29
0 14 -7 -14 -43 -174 -6 -27 -5 -27 4 -6 9 20 15 22 48 17 73 -14 75 -14 67
-54 -10 -57 -23 -65 -78 -51 -41 10 -47 15 -48 38 0 15 -15 -17 -33 -74 -99
-297 -247 -538 -465 -756 -133 -132 -243 -214 -391 -292 -207 -109 -398 -158
-614 -158 -332 1 -595 110 -826 341 -202 204 -330 464 -391 800 -21 113 -18
469 4 585 40 205 91 362 172 530 208 432 557 757 961 898 196 68 358 88 551
66z m556 -39 c26 -17 47 -34 47 -38 0 -12 -59 -102 -66 -102 -9 0 -104 61
-104 66 0 17 53 104 63 104 6 0 33 -14 60 -30z m-1440 -99 c9 -27 17 -51 17
-54 0 -7 -98 -77 -108 -77 -4 0 -18 21 -30 46 -22 44 -22 47 -5 59 10 7 36 27
58 43 22 17 42 31 45 31 3 1 13 -21 23 -48z m1565 10 c64 -51 164 -151 160
-161 -2 -4 -20 -27 -41 -50 l-39 -42 -61 59 c-34 32 -81 74 -104 93 l-42 35
32 53 c17 28 35 52 39 52 3 0 29 -18 56 -39z m-1698 -112 l24 -50 -30 -25
c-16 -13 -41 -33 -55 -44 l-27 -20 -26 40 c-14 22 -26 43 -26 47 0 9 101 102
111 103 3 0 16 -23 29 -51z m-141 -91 c8 -13 20 -32 27 -43 13 -19 9 -26 -39
-73 l-53 -52 -32 42 -32 42 52 53 c29 29 55 53 58 53 3 0 11 -10 19 -22z
m2043 -5 c14 -16 34 -41 44 -57 l18 -29 -44 -38 c-25 -22 -47 -39 -50 -39 -3
0 -23 23 -44 51 l-37 50 38 44 c21 24 41 44 44 44 3 1 17 -11 31 -26z m-2122
-180 c0 -6 -5 -15 -10 -18 -13 -8 -143 -182 -159 -213 l-12 -23 -44 32 c-43
31 -44 33 -30 59 7 14 22 33 32 41 16 12 15 11 -1 -9 -18 -21 -19 -24 -3 -39
15 -16 18 -15 42 7 31 29 44 20 21 -16 -26 -39 -13 -39 18 0 29 39 32 58 12
75 -11 10 -20 6 -40 -16 -28 -30 -36 -20 -11 13 22 29 18 40 -7 18 -21 -18
-21 -18 2 16 13 19 46 63 74 98 l50 63 33 -38 c18 -21 32 -43 33 -50z m2234
20 c20 -32 36 -60 36 -63 0 -3 -22 -22 -50 -43 l-50 -37 -13 22 c-8 13 -23 39
-35 58 l-21 35 41 43 c23 23 45 42 49 42 4 0 24 -26 43 -57z m79 -148 c15 -31
27 -61 27 -68 0 -11 -98 -73 -105 -65 -8 8 -55 121 -51 125 17 17 83 63 91 63
6 0 23 -25 38 -55z m-2547 -111 c19 -15 34 -30 34 -34 0 -15 -65 -120 -74
-120 -15 0 -76 41 -76 52 0 16 64 128 73 128 5 0 24 -12 43 -26z m2608 -33
c10 -28 28 -57 42 -66 13 -8 24 -23 24 -33 -1 -15 -2 -15 -16 3 -16 19 -16 19
-9 -5 4 -14 13 -35 21 -47 7 -12 9 -23 4 -25 -5 -2 0 -23 10 -47 24 -53 27
-79 6 -62 -11 9 -26 7 -67 -9 -30 -11 -57 -20 -60 -20 -4 0 -12 27 -18 61 -7
33 -25 99 -41 147 -16 48 -28 87 -27 88 15 11 103 64 108 64 3 0 13 -22 23
-49z m-2693 -121 c34 -18 39 -24 33 -43 -12 -39 -55 -118 -62 -115 -4 2 -24
10 -44 18 -21 8 -38 18 -38 23 0 16 55 137 63 137 4 0 26 -9 48 -20z m-35
-183 c5 -4 -32 -122 -42 -136 -7 -9 -94 23 -94 34 0 13 35 119 45 135 5 8 76
-17 91 -33z m2833 -89 l6 -73 -40 0 c-22 0 -54 -4 -71 -8 l-31 -8 -7 72 c-4
39 -4 75 1 79 4 5 31 15 58 23 66 20 76 10 84 -85z m2 -112 c16 -34 2 -161
-15 -147 -7 6 -34 8 -64 4 l-52 -6 0 39 c0 21 -3 55 -6 75 -6 35 -5 37 32 47
68 18 93 15 105 -12z m-2979 -296 l27 0 -6 -67 c-3 -38 -11 -71 -17 -75 -6 -4
-31 -8 -55 -8 l-44 0 7 71 c8 84 11 93 40 85 11 -3 33 -6 48 -6z m18 -239 c0
-76 2 -73 -72 -87 l-38 -6 0 74 c0 41 3 78 7 81 3 4 28 7 55 7 l48 0 0 -69z
m4 -137 c13 -95 11 -98 -45 -116 -58 -19 -57 -21 -61 72 l-3 65 45 12 c25 6
48 12 51 12 4 1 9 -20 13 -45z m2813 -35 c27 -10 27 -42 0 -103 -9 -21 -17
-42 -17 -47 0 -19 -23 -19 -65 0 -25 11 -45 22 -45 24 0 3 32 100 45 135 5 12
32 10 82 -9z m-2789 -153 c7 -35 23 -98 37 -141 13 -43 24 -79 22 -80 -18 -15
-89 -55 -96 -55 -9 0 -33 81 -26 88 2 3 7 -7 11 -22 7 -30 29 -33 62 -10 24
16 28 47 12 88 -12 34 -31 33 -69 -3 l-31 -29 -9 37 c-20 78 -32 153 -26 159
9 10 67 30 86 31 11 1 19 -16 27 -63z m2706 -16 c25 -10 46 -25 45 -32 0 -17
-47 -136 -48 -123 -1 6 -6 3 -11 -5 -8 -12 -15 -11 -54 8 -26 12 -46 26 -46
32 0 14 57 140 64 140 2 0 25 -9 50 -20z m-80 -166 c50 -28 66 -46 48 -52 -7
-2 -12 -10 -12 -18 0 -26 -44 -93 -64 -98 -19 -5 -100 49 -94 63 6 11 73 131
74 131 1 0 22 -12 48 -26z m-2532 -124 c19 -43 23 -62 14 -68 -6 -5 -28 -21
-49 -37 l-37 -27 -25 56 c-14 31 -25 63 -25 71 0 12 73 65 90 65 3 0 17 -27
32 -60z m2450 -41 c27 -18 47 -37 45 -43 -7 -21 -37 -17 -73 10 l-36 28 -24
-29 c-13 -17 -27 -38 -30 -48 -7 -22 20 -55 58 -71 33 -14 23 -38 -16 -38 -15
0 -33 -9 -41 -20 -7 -11 -18 -17 -24 -13 -8 4 -5 15 9 32 15 19 17 30 9 44
-14 28 -35 23 -63 -14 -33 -43 -33 -57 -1 -27 29 27 32 20 9 -16 -16 -24 -16
-26 6 -49 13 -14 30 -25 39 -25 12 0 12 -3 3 -12 -21 -21 -46 -18 -75 10 -50
48 -50 54 -1 112 24 29 68 85 96 126 28 41 54 74 56 74 3 0 27 -14 54 -31z
m-2382 -96 l31 -58 -40 -37 c-22 -21 -44 -38 -48 -38 -5 0 -23 27 -41 59 l-33
60 47 35 c26 20 48 36 50 36 1 0 17 -26 34 -57z m78 -128 c18 -25 32 -49 32
-53 0 -4 -17 -27 -38 -51 l-38 -44 -26 34 c-64 86 -63 82 -18 123 22 20 44 36
48 36 5 0 23 -20 40 -45z m2131 -107 c9 -3 -4 -23 -38 -60 -36 -40 -57 -55
-68 -51 -12 5 -15 2 -10 -10 4 -11 -11 -31 -50 -67 -73 -66 -97 -66 -135 5
-14 28 -27 53 -27 57 -1 3 25 27 56 52 l57 45 33 -50 c19 -27 38 -49 44 -49
11 0 8 6 -34 69 l-29 43 53 54 54 55 40 -45 c22 -24 46 -46 54 -48z m-1985
-65 l97 -97 -28 -44 c-15 -25 -34 -47 -41 -50 -15 -5 -202 180 -202 199 0 10
67 89 76 89 0 0 45 -44 98 -97z m1671 -133 c16 -33 34 -59 41 -58 26 6 9 -18
-39 -54 -69 -52 -95 -49 -37 4 l45 40 -58 -32 -57 -32 -26 57 c-13 32 -24 59
-22 60 19 15 114 75 119 75 3 0 18 -27 34 -60z m-1482 -24 l29 -23 -26 -52
c-15 -28 -32 -51 -39 -51 -6 0 -34 16 -60 36 l-48 35 21 32 c12 18 26 42 32
54 10 21 12 22 37 7 14 -9 39 -26 54 -38z m1334 -58 c12 -29 19 -56 16 -61 -5
-9 -99 -57 -110 -57 -4 1 9 10 30 21 27 14 37 26 37 43 0 30 -21 48 -40 36
-19 -12 -30 -12 -30 -2 0 5 12 14 26 21 15 6 24 15 20 18 -11 11 -86 -29 -86
-46 0 -27 14 -41 30 -31 19 13 50 13 50 1 0 -6 -13 -18 -29 -27 -16 -9 -27
-23 -24 -29 5 -16 -28 -29 -37 -15 -4 7 -19 9 -36 5 -28 -6 -28 -6 -10 9 11 9
23 16 28 16 16 0 8 58 -9 64 -13 5 2 17 57 45 41 21 80 39 86 39 6 1 20 -22
31 -50z m-1219 -7 c31 -15 80 -36 107 -46 28 -10 54 -22 58 -26 5 -3 1 -32 -9
-64 -18 -55 -19 -56 -48 -51 -34 7 -236 102 -236 111 0 15 52 105 60 105 6 0
36 -13 68 -29z m916 -108 c14 -85 13 -86 -102 -109 l-32 -6 0 64 0 64 43 11
c77 19 84 17 91 -24z m-154 -57 c0 -76 8 -72 -177 -82 l-122 -7 5 44 c11 94 5
89 92 90 42 0 100 4 127 9 28 4 56 8 63 9 8 1 12 -18 12 -63z"/>
<path d="M4154 7302 c-11 -7 -7 -215 11 -554 8 -137 8 -137 73 -138 22 0 23 2
17 73 -5 71 -25 537 -25 597 0 27 -3 30 -32 30 -18 0 -38 -4 -44 -8z"/>
<path d="M4455 7279 c-2 -13 -19 -89 -35 -169 -72 -341 -100 -479 -100 -493 0
-15 59 -30 72 -18 8 7 152 680 146 686 -1 2 -20 6 -40 10 -33 6 -38 5 -43 -16z"/>
<path d="M3822 7232 c-42 -17 -62 -30 -61 -41 3 -23 -12 -90 -21 -96 -8 -5
-45 35 -52 57 -2 6 -25 -3 -53 -21 -28 -17 -43 -31 -34 -31 22 0 120 -131 109
-145 -5 -5 -11 -29 -15 -52 -3 -24 -13 -59 -21 -80 l-16 -37 23 16 c16 10 25
27 27 51 1 20 7 49 13 64 l10 27 23 -29 c13 -16 21 -35 19 -42 -3 -7 33 5 78
26 46 21 93 41 104 45 13 5 16 10 8 14 -6 4 -23 58 -37 119 -14 62 -30 123
-35 136 -6 16 -6 28 2 36 16 16 0 12 -71 -17z m21 -157 c14 -60 27 -117 29
-125 7 -36 -17 -20 -66 44 l-53 68 14 47 c21 71 37 102 44 88 3 -7 18 -61 32
-122z"/>
<path d="M4615 7248 c-2 -7 -16 -67 -30 -133 -14 -66 -45 -212 -70 -325 -33
-154 -41 -206 -32 -212 12 -8 77 -11 77 -4 0 8 130 631 135 647 4 12 -4 20
-26 28 -41 14 -49 14 -54 -1z"/>
<path d="M4990 7070 c0 -25 -167 -250 -186 -250 -21 0 -17 -8 22 -46 35 -32
63 -46 49 -24 -9 14 162 243 187 253 20 7 20 8 2 28 -11 12 -31 30 -46 41 -28
19 -28 19 -28 -2z"/>
<path d="M3153 6661 c-32 -46 -44 -76 -22 -54 14 14 130 -14 167 -41 7 -5 15
-7 18 -4 9 10 79 -21 76 -34 -3 -13 61 54 77 82 7 12 3 15 -18 17 -15 1 -47 9
-72 17 -24 9 -52 16 -61 16 -10 0 -24 12 -32 28 -12 20 -15 23 -16 9 0 -16 -5
-17 -32 -12 -18 4 -37 11 -43 15 -6 5 -23 -11 -42 -39z"/>
<path d="M3500 6596 c0 -7 7 -46 16 -87 l17 -73 219 -255 c175 -204 218 -260
213 -276 -23 -71 -17 -120 21 -164 l24 -29 -57 -12 c-110 -23 -199 -75 -298
-174 -74 -74 -98 -107 -132 -176 -59 -122 -74 -180 -80 -310 -7 -143 12 -236
67 -336 90 -163 235 -255 405 -255 150 0 287 63 404 187 74 77 161 214 121
189 -11 -7 -50 16 -50 30 1 30 17 37 48 21 29 -15 31 -15 37 5 4 11 4 23 1 26
-3 4 -6 -1 -6 -10 0 -20 -4 -21 -33 -6 -29 16 -28 14 -21 33 7 18 44 22 61 5
7 -7 12 -4 16 11 4 15 2 19 -6 12 -16 -13 -57 3 -57 23 0 22 27 30 56 17 19
-10 24 -9 24 3 0 10 -10 15 -29 15 -33 0 -44 11 -35 34 9 23 64 22 65 -1 1
-10 5 -2 10 17 10 40 10 167 0 151 -4 -6 -21 -14 -39 -17 -28 -6 -32 -4 -32
15 0 22 43 47 61 35 27 -17 -9 114 -58 207 -44 85 -122 165 -203 208 -55 30
-61 35 -43 42 26 9 41 31 25 37 -17 5 -15 32 2 32 25 0 37 64 14 73 -10 3 -8
9 5 24 9 11 17 26 17 34 0 8 24 28 53 46 92 55 726 401 746 408 17 5 23 -3 40
-61 12 -36 21 -76 22 -88 0 -11 3 -15 6 -9 4 12 73 47 210 109 29 13 59 21 67
18 12 -5 10 13 -11 88 -14 51 -28 103 -30 116 -6 26 -23 40 -23 18 0 -9 -13
-22 -30 -31 -38 -20 -38 -9 0 35 47 56 42 62 -47 54 l-78 -7 -270 -168 c-148
-92 -278 -171 -287 -174 -24 -9 -43 28 -23 45 38 31 2 70 -63 70 -23 0 -27 -4
-27 -27 0 -16 -4 -40 -8 -55 -6 -22 -4 -28 8 -28 9 0 15 9 15 21 0 28 43 22
49 -6 2 -11 8 -23 14 -27 6 -4 9 -9 7 -11 -17 -16 -186 -117 -196 -117 -7 0
-14 -4 -16 -9 -1 -5 -52 -39 -112 -76 -100 -61 -111 -66 -136 -55 -16 6 -47
10 -70 9 -49 -4 -37 -19 -272 323 -80 117 -155 220 -165 229 -32 28 -143 70
-143 55z m1770 -45 c-2 -32 -90 -88 -445 -281 -214 -117 -394 -216 -400 -220
-26 -18 -228 -119 -210 -105 52 43 972 609 999 615 32 7 56 3 56 -9z m-1675
-23 c16 -7 90 -105 200 -264 167 -242 194 -284 181 -284 -4 0 -254 286 -393
451 -12 14 -26 45 -32 67 -10 47 -3 51 44 30z m345 -882 c0 -19 -5 -36 -12
-38 -7 -3 28 -2 77 0 50 2 108 -1 130 -7 46 -12 155 -78 155 -93 0 -5 -14 -28
-31 -49 -17 -21 -27 -39 -22 -39 4 0 21 16 36 35 15 19 32 35 38 35 5 0 27
-28 49 -62 45 -69 54 -80 45 -56 -7 19 37 54 55 43 24 -15 9 -37 -48 -71 -1 0
4 -27 13 -60 15 -58 20 -199 9 -242 -6 -22 -10 -23 -57 -17 -35 5 -48 4 -43
-4 4 -6 20 -11 36 -11 51 0 60 -8 49 -43 -6 -18 -29 -70 -51 -116 -46 -95
-143 -203 -215 -239 l-41 -21 -12 49 c-7 28 -16 50 -21 50 -9 0 -4 -34 12 -77
9 -25 -1 -36 -51 -51 -69 -21 -133 -23 -195 -7 -62 16 -164 71 -172 92 -3 7 9
30 26 52 44 56 38 65 -8 11 l-39 -45 -21 25 c-75 89 -120 259 -104 385 l8 60
49 -4 c33 -2 46 0 42 8 -4 6 -19 11 -34 11 -45 0 -53 11 -41 55 19 69 81 176
138 237 53 58 130 118 150 118 5 0 17 -21 25 -47 16 -49 16 -46 4 41 -2 14 14
32 40 42 1 1 -1 9 -4 19 -7 17 -8 16 -15 -3 -12 -31 -36 -27 -42 5 -6 34 -1
43 23 43 10 0 22 5 25 10 3 6 15 10 26 10 15 0 19 -7 19 -34z"/>
<path d="M4062 5580 c-7 -11 -21 -20 -31 -20 -25 0 -41 -21 -48 -64 -4 -26 -1
-42 10 -54 14 -15 13 -29 -10 -142 -23 -117 -27 -127 -54 -142 -48 -28 -59
-87 -24 -128 11 -12 8 -31 -17 -108 -16 -52 -27 -96 -25 -99 3 -2 23 -7 45
-10 l40 -5 11 68 c19 115 22 123 41 129 27 8 60 53 60 80 0 12 -9 34 -20 48
-11 14 -20 31 -20 38 0 7 14 66 31 131 29 106 34 118 54 118 46 0 64 122 18
128 -13 2 -24 13 -27 28 -8 29 -17 30 -34 4z"/>
<path d="M2917 6164 c-9 -10 -9 -41 1 -46 4 -2 18 -15 31 -30 l24 -27 -29 -12
c-16 -6 -36 -11 -46 -11 -13 0 -20 -18 -32 -86 -17 -93 -20 -144 -8 -126 11
16 240 -16 252 -36 13 -21 16 -14 26 78 8 71 7 82 -6 82 -14 0 -36 19 -53 47
-5 7 7 16 29 23 29 10 38 10 44 0 5 -8 14 8 24 43 9 31 19 64 23 74 6 15 4 16
-8 6 -24 -19 -181 -73 -193 -66 -13 8 -47 49 -62 75 -5 10 -13 15 -17 12z"/>
<path d="M5297 5695 c-4 -9 -7 -29 -7 -45 0 -26 3 -29 50 -35 34 -5 50 -12 50
-21 0 -12 -11 -14 -58 -8 l-59 6 -11 -42 c-11 -46 -12 -45 52 -54 22 -3 42
-10 46 -16 3 -5 19 40 34 101 15 61 26 112 24 115 -2 2 -29 6 -59 10 -47 5
-57 4 -62 -11z"/>
<path d="M2973 5379 c-79 -37 -143 -73 -143 -78 0 -31 25 -111 35 -111 18 0
129 47 218 92 78 39 79 40 72 71 -3 18 -9 47 -12 65 -3 17 -11 32 -17 31 -6 0
-75 -32 -153 -70z m152 0 c4 -17 5 -32 3 -34 -2 -2 -57 -29 -122 -59 -91 -43
-121 -53 -128 -44 -21 35 -7 48 110 107 64 33 120 60 124 60 3 1 9 -13 13 -30z"/>
<path d="M4833 5135 c-18 -24 -33 -48 -33 -52 0 -5 52 -60 116 -123 l115 -115
22 27 c13 15 30 41 40 57 l17 30 -112 110 c-62 61 -117 111 -123 111 -5 -1
-25 -21 -42 -45z m151 -94 c99 -97 103 -106 62 -140 -12 -10 -31 4 -117 87
l-102 99 19 26 c10 15 24 26 31 24 7 -1 55 -44 107 -96z"/>
<path d="M3198 4735 c-27 -35 -48 -68 -48 -73 0 -16 69 -75 82 -69 8 2 26 23
42 46 l29 41 -23 60 c-12 33 -25 60 -29 60 -3 -1 -27 -30 -53 -65z"/>
<path d="M4455 4564 c-64 -68 -67 -76 -54 -128 6 -26 14 -48 18 -50 10 -6 94
33 103 47 6 9 8 8 8 -2 0 -8 2 -12 5 -9 7 7 -25 161 -35 172 -5 5 -25 -8 -45
-30z"/>
<path d="M2813 6772 c-7 -15 -26 -49 -43 -77 -17 -27 -33 -57 -36 -65 -3 -8
-14 -35 -25 -60 -11 -25 -30 -65 -41 -90 -11 -25 -28 -63 -39 -85 -10 -22 -19
-49 -19 -60 0 -11 -6 -29 -13 -40 -7 -11 -14 -29 -14 -40 -1 -11 -7 -33 -14
-50 -7 -16 -11 -34 -10 -39 1 -4 -4 -25 -10 -45 -7 -20 -14 -45 -15 -56 -1
-11 -8 -49 -14 -85 -30 -171 -44 -470 -21 -455 5 3 9 46 8 96 -1 50 1 93 4 95
3 2 4 16 1 30 -4 23 -2 26 12 21 10 -4 20 -7 22 -7 8 0 4 -42 -7 -62 -10 -19
-5 -38 7 -25 8 7 22 137 16 137 -3 0 -10 -7 -17 -17 -7 -9 -17 -13 -24 -9 -10
6 -8 31 4 73 6 17 33 5 38 -15 2 -10 7 12 11 48 5 36 15 94 22 130 8 36 17 79
20 95 3 17 12 48 19 70 7 22 21 67 31 100 10 33 22 64 26 69 21 25 5 34 -17
10 -19 -20 -28 -25 -37 -16 -8 8 -6 15 6 27 9 9 16 23 16 32 0 11 6 14 22 10
14 -4 26 0 34 11 22 28 16 36 -12 17 -20 -13 -29 -14 -38 -5 -8 8 -7 14 7 21
9 6 17 17 17 25 0 20 27 29 44 15 11 -9 15 -7 19 8 4 17 1 19 -24 14 -43 -8
-37 14 18 72 10 11 10 14 0 19 -8 3 -7 8 6 16 9 6 17 18 17 26 0 8 6 17 14 20
8 3 12 12 9 20 -3 7 1 20 9 28 35 39 39 47 31 61 -7 12 -11 9 -20 -13z"/>
<path d="M6417 6673 c-14 -13 -6 -30 18 -41 38 -18 81 -85 99 -158 16 -64 30
-194 27 -259 -3 -73 -5 -93 -12 -89 -4 2 -9 -6 -11 -18 -2 -13 -9 -22 -17 -20
-7 1 -15 -7 -18 -18 -7 -27 -25 -21 -34 11 -4 14 -8 18 -10 9 -1 -8 -5 5 -9
30 -6 36 -7 28 -8 -47 l-2 -93 44 0 c30 0 55 -8 80 -25 45 -30 53 -31 61 -5
23 71 -48 548 -93 633 -37 69 -93 113 -115 90z"/>
</g>
</svg>
