<?xml version="1.0" standalone="no"?>
<!DOCTYPE svg PUBLIC "-//W3C//DTD SVG 20010904//EN"
 "http://www.w3.org/TR/2001/REC-SVG-20010904/DTD/svg10.dtd">
<svg version="1.0" xmlns="http://www.w3.org/2000/svg"
 width="800.000000pt" height="800.000000pt" viewBox="0 0 800.000000 800.000000"
 preserveAspectRatio="xMidYMid meet">
<metadata>
Created by potrace 1.16, written by Peter Selinger 2001-2019
</metadata>
<g transform="translate(0.000000,800.000000) scale(0.100000,-0.100000)"
fill="#000000" stroke="none">
<path d="M3850 7450 c-496 -7 -500 -7 -572 -84 -69 -72 -100 -114 -114 -157
-8 -22 -20 -50 -28 -62 -8 -12 -17 -40 -21 -62 -4 -21 -18 -52 -31 -68 -16
-19 -24 -42 -25 -70 -2 -60 -2 -62 -22 -82 -25 -24 -35 -54 -41 -114 -2 -28
-15 -69 -30 -94 -15 -25 -26 -59 -26 -80 0 -20 -5 -48 -11 -64 -6 -15 -17 -50
-23 -78 -9 -37 -16 -50 -29 -49 -10 1 -17 -5 -17 -17 0 -10 -9 -27 -21 -38
-12 -11 -19 -24 -16 -28 4 -5 0 -34 -8 -64 -26 -101 -66 -350 -63 -395 3 -45
3 -45 24 -26 31 30 62 44 69 32 3 -5 13 -10 22 -10 12 0 13 3 4 14 -9 11 3 21
66 50 64 31 82 35 101 27 32 -15 41 -13 19 3 -17 14 -17 15 5 21 13 4 51 18
86 32 58 23 65 24 81 9 10 -9 24 -16 32 -16 8 1 3 7 -11 14 l-24 14 39 11
c116 32 144 35 163 18 10 -10 25 -17 33 -16 8 0 4 4 -8 9 -27 11 -30 30 -5 30
9 1 49 5 87 10 65 8 72 7 95 -13 14 -12 19 -15 13 -7 -7 8 -13 18 -13 22 0 10
217 9 304 0 46 -6 60 -11 62 -25 1 -9 -2 -15 -6 -12 -5 3 -16 -5 -24 -17 -12
-17 -13 -25 -3 -37 9 -11 9 -13 0 -8 -6 4 -15 2 -19 -4 -4 -7 -3 -9 4 -5 6 3
13 2 17 -4 4 -6 -9 -11 -32 -11 -24 -1 -29 -3 -13 -5 14 -2 59 -9 100 -15 67
-10 156 -37 148 -44 -2 -2 -39 5 -83 16 -44 11 -149 25 -232 31 -472 37 -926
-112 -1300 -426 -296 -248 -515 -608 -612 -1001 -40 -163 -46 -226 -46 -450 1
-188 4 -236 24 -335 151 -760 703 -1332 1437 -1490 129 -28 447 -39 591 -20
54 7 113 12 131 11 19 -1 31 2 28 8 -3 5 3 7 14 4 11 -3 23 -10 27 -16 3 -5 1
-7 -4 -4 -6 4 -13 -3 -17 -16 -9 -34 -7 -59 4 -52 6 4 8 11 5 16 -4 5 10 0 29
-12 20 -12 38 -25 41 -29 7 -12 -57 -30 -130 -37 -33 -3 -67 -9 -76 -14 -23
-12 -349 -23 -349 -12 0 5 6 15 13 23 6 8 0 4 -15 -9 -24 -21 -32 -22 -95 -16
-92 9 -106 13 -98 33 5 14 4 14 -13 -1 -18 -16 -23 -16 -98 3 -43 12 -91 23
-105 25 -40 5 -179 57 -179 66 0 5 -7 6 -15 3 -15 -6 -167 62 -173 77 -2 4 -9
6 -16 3 -7 -3 -26 6 -42 19 -16 13 -39 29 -51 36 -22 11 -23 10 -23 -33 0
-112 58 -434 89 -494 4 -10 7 -22 4 -28 -2 -6 3 -17 12 -24 8 -7 15 -22 15
-34 0 -27 27 -115 40 -131 6 -7 14 -32 19 -56 10 -46 70 -220 88 -254 23 -43
43 -97 43 -114 0 -10 11 -39 25 -65 14 -26 25 -59 25 -75 0 -15 11 -43 25 -61
14 -19 31 -53 37 -75 6 -22 24 -57 40 -77 15 -20 28 -40 28 -44 0 -12 84 -113
95 -114 6 0 27 -14 49 -30 21 -16 62 -34 92 -40 37 -8 288 -10 841 -7 791 3
801 4 878 37 11 5 75 10 142 12 119 3 123 4 150 31 28 27 28 29 28 153 l0 126
-38 33 c-21 18 -55 37 -74 42 -48 11 -55 33 -11 34 l33 1 -35 13 c-19 7 -56
14 -82 14 -26 1 -50 6 -53 11 -7 12 69 12 140 0 28 -4 52 -6 54 -4 2 2 4 25 6
51 1 40 5 48 21 48 12 0 26 14 39 40 11 22 21 42 23 44 1 3 24 -5 51 -16 l49
-20 5 23 c2 13 0 21 -5 18 -5 -4 -3 7 5 22 8 18 13 48 10 75 -2 33 1 48 10 52
8 3 15 24 16 54 2 26 4 69 5 94 2 25 7 52 11 59 8 14 14 68 16 158 1 24 7 56
15 70 9 19 10 28 2 33 -7 4 -8 14 -3 25 5 11 10 55 11 99 2 84 11 186 18 220
2 11 5 28 5 38 1 11 9 17 26 17 14 0 25 5 25 11 0 5 -4 8 -9 4 -5 -3 -12 -1
-15 4 -4 5 4 11 16 13 15 2 22 9 22 21 -1 9 4 17 12 17 21 0 17 14 -8 25 -13
6 -22 16 -21 23 2 7 -6 12 -17 12 -27 0 -52 43 -54 93 -2 68 15 348 24 395 9
52 11 54 52 59 18 1 41 12 51 24 23 29 22 81 -3 104 -23 21 -24 20 -38 -20
l-10 -30 -1 33 c-1 30 -21 48 -21 18 0 -8 -3 -17 -8 -20 -4 -2 -6 13 -4 34 2
21 -1 41 -7 44 -13 9 -15 78 -2 91 5 6 6 18 2 28 -6 17 -13 14 -63 -27 l-57
-46 -60 -185 c-36 -108 -61 -202 -61 -227 0 -29 -3 -38 -9 -29 -6 10 -20 -23
-46 -105 -20 -65 -52 -168 -71 -229 -20 -60 -44 -153 -55 -205 -11 -52 -27
-117 -35 -145 -28 -88 -115 -305 -125 -310 -15 -10 -9 103 11 210 16 85 16
102 5 114 -12 12 -13 11 -9 -10 4 -24 4 -24 -7 -2 -10 20 -17 21 -89 17 -43
-3 -80 -1 -83 3 -3 4 41 9 97 11 55 2 106 8 111 14 7 8 6 9 -4 3 -10 -5 -12
-3 -7 11 3 11 25 91 50 179 69 247 243 769 293 880 92 204 163 439 177 585 4
46 -3 23 -24 -77 -73 -353 -209 -649 -398 -870 -18 -21 -28 -28 -22 -15 15 31
8 27 -20 -10 -14 -19 -16 -27 -7 -19 9 7 17 9 17 3 0 -14 -26 -33 -34 -25 -4
4 -4 0 -1 -9 4 -10 15 -15 26 -13 12 2 19 -2 19 -11 0 -13 6 -16 27 -13 3 0
10 -6 15 -15 5 -9 13 -14 19 -11 5 4 9 1 9 -6 0 -14 -90 -316 -119 -402 -19
-53 -51 -103 -51 -78 0 15 -30 14 -31 -1 0 -7 -4 -4 -9 7 -5 11 -9 14 -9 6 -1
-11 -4 -11 -18 0 -15 12 -16 12 -10 -6 7 -19 6 -19 -7 -2 -15 20 -31 23 -20 5
5 -10 4 -10 -6 -1 -9 8 -13 36 -12 80 1 37 -2 86 -6 107 -4 23 -7 -27 -7 -123
0 -88 -4 -161 -9 -161 -5 0 -6 56 -3 128 4 105 4 114 -4 52 -5 -41 -12 -100
-16 -130 l-7 -55 -7 58 c-7 66 -22 89 -41 68 -7 -8 -8 -11 -3 -8 6 3 11 -3 11
-13 0 -31 -22 -11 -24 22 -3 37 -6 41 -32 43 -17 1 -19 -5 -17 -49 1 -28 5
-56 9 -61 4 -6 3 -17 -3 -25 -7 -12 -9 -10 -9 9 0 17 -4 22 -15 17 -21 -8 -30
18 -15 41 10 15 10 14 5 -10 -4 -19 -2 -26 5 -22 5 3 9 27 9 53 -1 26 -4 38
-6 27 -8 -32 -24 -47 -38 -35 -18 15 -26 -22 -8 -38 18 -18 17 -46 -2 -38 -10
4 -15 -1 -15 -15 0 -11 -4 -17 -10 -14 -7 5 -9 -11 -6 -47 5 -49 5 -50 -4 -13
-5 22 -12 94 -16 160 l-7 120 59 39 c32 22 94 66 136 98 42 33 82 57 87 54 5
-4 10 -29 9 -57 0 -28 3 -53 7 -57 3 -4 5 31 4 76 l-2 83 59 60 c32 32 54 59
50 59 -5 0 -46 -37 -90 -83 -89 -91 -157 -145 -286 -229 -90 -59 -203 -119
-182 -97 6 7 12 20 12 30 0 9 10 29 22 44 19 25 26 27 75 23 41 -4 53 -2 49 8
-3 8 0 11 11 7 23 -9 0 30 -33 56 -22 17 -30 19 -42 9 -13 -11 -15 -10 -9 4 4
12 2 15 -8 12 -8 -3 -13 -11 -12 -16 1 -6 -7 -11 -19 -12 -11 -2 -21 3 -21 10
0 7 4 11 8 8 12 -7 60 26 53 37 -3 5 1 7 8 4 39 -14 343 271 451 422 280 394
402 786 384 1238 -11 282 -63 490 -185 740 -64 130 -147 275 -158 275 -3 0 -2
-6 2 -12 4 -8 3 -9 -2 -5 -5 5 -9 16 -9 25 0 9 -6 16 -13 14 -8 -1 -11 2 -7 8
9 14 -14 42 -28 33 -6 -3 -7 -1 -3 6 8 13 -12 44 -24 36 -4 -2 -16 5 -26 18
-16 18 -16 19 -1 8 26 -21 20 2 -8 29 -14 13 -25 19 -25 15 0 -5 -31 22 -70
60 -38 38 -67 71 -65 74 3 2 -9 20 -27 39 -18 19 -26 31 -18 26 25 -14 44 -14
62 2 19 18 13 51 -7 34 -6 -5 -15 -7 -18 -3 -4 3 -7 -1 -7 -10 0 -11 6 -15 18
-11 14 5 14 4 2 -4 -17 -13 -26 -8 -33 17 -4 15 0 19 14 16 16 -3 18 1 15 21
-3 14 -1 22 5 19 5 -4 7 -11 4 -16 -4 -5 -1 -9 4 -9 12 0 14 11 5 34 -3 9 -10
13 -15 10 -5 -3 -6 2 -2 12 5 13 2 15 -15 10 -12 -4 -31 -2 -43 4 -15 8 -19 9
-15 1 4 -6 1 -11 -8 -11 -20 0 -56 48 -56 75 0 34 -23 47 -81 44 -46 -3 -54 0
-75 25 -13 15 -24 34 -24 43 0 23 -31 43 -51 33 -13 -7 -54 -8 -101 -1 -4 1
-16 19 -27 41 l-20 41 22 -7 c85 -26 286 -124 338 -165 20 -16 40 -29 44 -29
13 0 194 -141 227 -177 34 -37 149 -157 243 -253 98 -101 166 -202 241 -355
99 -205 156 -382 189 -595 10 -65 13 -75 14 -42 2 110 -64 348 -159 573 -67
158 -228 641 -301 904 -28 98 -53 183 -55 187 -3 4 1 8 8 9 38 1 -39 17 -115
24 l-88 7 7 -74 c15 -162 22 -193 17 -70 -3 72 -2 122 4 122 5 0 7 -15 6 -32
-2 -18 0 -73 5 -123 l9 -90 2 66 c1 46 6 70 16 79 10 9 15 9 15 1 0 -13 22
-10 32 4 5 6 8 5 8 -4 0 -11 3 -11 15 -1 12 10 15 10 15 -1 0 -11 2 -11 10 1
8 12 10 12 10 1 0 -11 3 -11 18 0 9 7 14 9 10 5 -4 -5 -4 -14 1 -20 11 -13 70
-195 111 -342 34 -123 33 -117 20 -109 -5 3 -10 1 -10 -6 0 -7 -3 -9 -6 -6 -9
9 -66 -32 -59 -43 3 -4 -4 -6 -14 -3 -11 3 -56 42 -100 88 l-81 83 -1 83 c-1
64 -3 77 -9 55 -5 -16 -6 -41 -3 -57 10 -52 -19 -44 -129 38 -57 43 -117 87
-132 98 l-28 20 8 95 c5 52 10 82 12 65 2 -16 10 -34 18 -38 8 -4 14 -23 14
-42 0 -19 5 -37 12 -41 8 -5 9 -2 5 9 -3 9 -2 19 3 22 6 4 10 16 11 28 0 21 1
21 9 2 7 -16 9 -14 10 15 l1 35 17 -37 c9 -21 24 -38 32 -39 9 0 10 -2 3 -5
-7 -3 -9 -12 -6 -20 5 -13 7 -13 14 -2 7 10 9 9 9 -5 0 -14 3 -15 13 -6 7 7
14 21 14 32 2 16 0 17 -14 5 -15 -11 -16 -10 -10 12 4 14 7 40 7 58 0 17 5 32
11 32 7 0 9 -11 6 -26 -2 -14 1 -45 8 -69 8 -24 11 -46 8 -49 -4 -3 -1 -6 5
-6 18 0 26 22 11 31 -8 5 -11 9 -7 9 4 0 3 11 -2 24 -6 17 -5 26 2 28 7 3 11
27 9 66 -3 69 -6 66 86 64 22 -1 37 5 46 18 8 11 17 17 20 13 4 -3 7 2 7 13 0
16 2 17 10 4 7 -11 9 -6 7 18 -1 20 -6 30 -14 28 -9 -4 -10 1 -3 19 5 14 6 25
2 25 -4 0 -9 12 -10 27 -1 15 -8 30 -15 35 -6 4 -8 8 -3 8 5 0 2 8 -8 19 -13
14 -14 24 -6 45 13 36 13 43 -2 23 -12 -16 -14 -16 -26 4 -8 12 -9 18 -3 14 6
-3 11 -2 11 3 0 5 -9 12 -19 15 -17 4 -18 2 -11 -19 5 -13 7 -24 5 -24 -3 0
-10 11 -14 24 -10 25 -48 36 -128 36 -24 0 -43 5 -43 11 0 7 19 8 56 3 39 -4
55 -3 50 4 -3 6 -2 13 4 17 5 3 10 -2 10 -12 0 -16 13 -21 89 -32 l89 -12 61
-152 c43 -106 67 -185 81 -262 11 -60 31 -144 45 -185 13 -41 40 -129 60 -195
37 -119 61 -195 151 -480 43 -134 52 -154 88 -187 43 -41 71 -50 63 -19 -2 10
0 25 5 34 10 19 0 69 -13 61 -5 -3 -9 0 -9 5 0 6 5 11 11 11 8 0 8 4 1 13 -5
7 -6 21 -1 32 10 27 11 75 0 75 -4 0 -7 28 -5 62 2 35 -1 67 -7 74 -6 8 -13
54 -15 104 -2 50 -6 95 -9 101 -4 5 -1 9 5 9 14 0 9 59 -7 72 -7 6 -13 18 -13
27 0 13 2 14 9 2 13 -20 6 86 -8 121 -6 16 -7 30 -1 33 6 3 6 15 0 30 -5 14
-6 25 -1 25 4 0 6 11 3 25 -2 14 -7 25 -11 25 -6 0 -7 58 -1 85 5 24 -1 56
-10 50 -5 -3 -10 3 -10 14 0 10 4 21 10 23 12 4 -7 126 -22 145 -6 7 -7 30 -3
52 4 25 2 48 -6 63 -7 13 -13 46 -14 73 -2 28 -10 67 -18 88 -12 28 -14 44 -6
64 7 20 5 35 -10 65 -10 21 -15 41 -10 44 21 13 8 34 -21 34 -28 0 -30 2 -30
39 l0 40 -32 -10 c-18 -5 -34 -9 -35 -9 -2 0 -3 11 -3 24 0 13 -5 26 -10 28
-6 2 -12 12 -14 23 -2 11 -8 29 -11 40 -7 19 -7 19 7 1 12 -15 22 -17 54 -11
63 11 103 32 102 52 0 10 2 38 6 63 6 45 6 45 -4 7 -12 -44 -28 -77 -38 -77
-7 0 -28 72 -39 132 -5 24 -3 26 18 21 15 -4 20 -3 15 5 -4 7 -3 12 2 12 5 0
15 21 22 46 11 39 11 47 -3 61 -20 21 -134 32 -122 13 5 -9 4 -11 -3 -6 -7 4
-12 14 -12 22 0 8 -4 14 -10 14 -5 0 -10 5 -10 11 0 7 -12 23 -26 36 -15 14
-23 30 -20 39 3 8 2 13 -3 10 -5 -3 -11 4 -14 15 -3 12 -10 18 -16 14 -7 -4
-11 4 -11 19 0 40 -94 114 -162 126 -66 12 -712 17 -1308 10z m-46 -1539 c3
-5 21 -8 38 -6 18 1 44 -3 58 -8 14 -6 33 -11 43 -12 9 -2 20 -4 25 -5 4 -1
10 -2 15 -1 4 0 8 -6 8 -14 4 -50 3 -78 -4 -82 -4 -2 -7 -21 -7 -41 0 -30 -5
-89 -9 -99 -1 -2 -1 -6 -2 -10 0 -5 -6 -14 -12 -22 -9 -12 -9 -13 1 -7 6 4 12
2 12 -3 0 -13 2 -13 -80 -1 -36 5 -126 10 -200 11 -89 2 -139 7 -147 15 -7 7
-22 10 -34 7 -20 -6 -20 -4 -8 18 10 20 10 22 -2 12 -12 -9 -14 -3 -13 40 1
63 -5 97 -18 97 -5 0 -6 -5 -2 -12 5 -7 3 -8 -6 -3 -10 6 -10 11 4 20 15 12
15 13 -1 26 -9 8 -14 9 -10 2 4 -6 3 -15 -3 -18 -6 -4 -9 -1 -8 7 2 7 -2 12
-8 11 -6 -1 -11 4 -11 12 0 8 4 12 9 9 4 -3 8 0 8 5 0 6 5 11 11 11 8 0 7 -6
-2 -17 -13 -16 -12 -17 3 -5 9 8 15 19 12 27 -3 7 0 16 7 21 8 4 10 3 5 -4 -4
-7 -3 -12 2 -12 6 0 13 7 16 16 5 12 17 15 51 12 25 -2 45 0 45 4 0 11 208 10
214 -1z m4 -738 l2 -203 -75 0 -75 0 0 198 c0 109 3 202 7 206 4 4 37 6 73 4
l65 -3 3 -202z m605 -2 c16 -14 17 -17 3 -27 -9 -6 -13 -14 -9 -17 3 -4 0 -7
-7 -7 -7 0 -10 -3 -7 -7 4 -3 -1 -12 -11 -20 -9 -8 -11 -11 -4 -8 11 6 12 3 3
-14 -7 -11 -16 -21 -22 -21 -6 0 -7 -4 -4 -10 3 -5 1 -10 -5 -10 -6 0 -9 -4
-6 -9 3 -5 -1 -14 -9 -21 -18 -15 -101 -162 -97 -172 1 -5 -1 -8 -5 -8 -6 0
-113 58 -122 66 -2 2 40 82 94 178 l97 176 47 -27 c25 -14 54 -33 64 -42z
m-1139 -126 c95 -165 94 -154 15 -199 -36 -21 -48 -24 -56 -14 -16 20 -171
301 -175 317 -2 8 20 28 51 47 65 39 45 57 165 -151z m1375 -128 c-26 -25 -44
-59 -78 -149 -24 -65 -47 -118 -51 -118 -5 0 -19 13 -33 29 l-24 29 -250 -251
c-137 -139 -293 -297 -346 -353 -77 -79 -107 -104 -140 -113 -92 -27 -85 -26
-63 -2 11 11 16 21 13 21 -11 0 -277 -356 -627 -842 -76 -105 -112 -144 -97
-104 3 8 106 151 229 318 333 451 408 555 408 561 0 4 -7 4 -16 0 -14 -5 -14
-1 1 33 9 22 19 44 21 50 3 5 -54 64 -127 130 -119 108 -134 119 -165 116 -45
-4 -101 24 -119 59 -8 15 -15 45 -15 66 0 33 -7 44 -55 86 -58 51 -68 79 -34
97 17 10 30 5 82 -29 56 -35 67 -39 108 -34 76 9 138 -40 139 -109 1 -19 29
-41 144 -115 79 -51 146 -93 150 -93 4 0 35 23 69 51 44 36 84 84 137 165 41
62 80 114 86 114 6 0 19 -9 29 -20 10 -12 24 -19 31 -18 6 2 87 65 179 141
l167 139 -32 33 c-17 18 -28 35 -23 38 13 8 261 77 276 77 8 0 22 9 32 20 10
11 21 18 24 15 3 -3 -10 -20 -30 -38z m-2279 -189 c-95 -204 -130 -376 -130
-644 0 -273 26 -425 105 -608 19 -44 33 -81 31 -83 -6 -6 -74 153 -99 233 -51
160 -62 244 -61 454 0 217 16 319 75 487 29 82 114 263 123 263 3 0 -17 -46
-44 -102z m2453 9 c15 -29 27 -57 27 -62 0 -6 -53 -41 -117 -80 -65 -38 -138
-84 -164 -101 l-46 -31 -33 59 c-22 41 -29 63 -22 70 10 10 313 196 322 197 3
1 17 -23 33 -52z m-1978 -50 c72 -44 140 -86 153 -94 l23 -14 -26 -42 c-15
-23 -29 -50 -32 -60 -4 -11 -11 -16 -21 -12 -13 5 -312 182 -320 190 -2 1 13
30 33 64 23 39 41 59 48 54 7 -3 71 -42 142 -86z m-702 -365 c22 -20 39 -84
31 -117 -6 -25 -47 -65 -66 -65 -14 0 2 42 23 63 23 22 24 45 3 75 -22 32 -64
26 -82 -10 -11 -23 -10 -32 3 -57 26 -51 21 -65 -22 -57 -21 3 -48 6 -61 6
-22 0 -23 2 -20 85 2 49 7 85 13 85 6 -1 9 -28 8 -65 -2 -50 1 -65 11 -65 8 0
21 -3 30 -6 13 -5 14 2 9 45 -5 46 -3 52 26 81 33 33 57 34 94 2z m735 -254
l-3 -73 -100 -3 c-55 -2 -142 0 -192 3 l-93 7 0 69 0 69 195 0 196 0 -3 -72z
m1746 50 l-5 -23 12 23 c12 22 14 22 188 20 l176 -3 0 -59 c0 -70 26 -62 -222
-72 l-163 -7 0 71 c0 40 4 72 9 72 5 0 7 -10 5 -22z m-2512 -40 c2 -15 11 -24
26 -26 14 -2 22 -10 22 -24 0 -16 -4 -19 -25 -14 -24 6 -24 5 -27 -61 -2 -37
-8 -68 -14 -70 -6 -2 -43 26 -82 63 -51 46 -72 73 -72 90 0 23 3 24 70 24 63
0 70 2 70 20 0 28 28 25 32 -2z m3158 -43 c0 -14 -4 -25 -9 -25 -17 0 -41 -31
-41 -52 0 -47 75 -79 108 -46 17 17 15 73 -3 88 -8 7 -15 21 -15 32 0 19 6 20
74 16 41 -2 76 -5 79 -8 10 -12 -9 -174 -20 -178 -10 -3 -13 15 -13 66 0 64
-2 70 -22 76 -43 11 -45 8 -40 -44 4 -43 1 -55 -18 -75 -30 -32 -63 -38 -105
-21 -68 29 -84 132 -28 176 35 27 53 26 53 -5z m-2277 -416 l35 -56 -146 -88
c-81 -49 -157 -95 -168 -102 -21 -13 -24 -11 -53 40 -17 30 -31 59 -31 64 0 8
321 206 325 200 1 -1 18 -27 38 -58z m1547 53 c0 -4 -6 -14 -12 -22 -11 -12
-10 -12 4 -1 16 12 37 2 173 -79 85 -51 155 -94 155 -96 0 -2 -13 -25 -30 -51
-16 -26 -30 -53 -30 -59 0 -11 -304 160 -333 186 -9 8 52 130 66 130 4 0 7 -4
7 -8z m-1230 -387 l58 -35 -62 -113 c-65 -115 -126 -219 -131 -226 -7 -6 -115
60 -115 71 0 12 181 338 188 338 2 0 30 -16 62 -35z m1029 -132 l94 -166 -26
-21 c-14 -12 -42 -31 -61 -43 l-36 -22 -95 169 c-52 92 -95 173 -95 178 0 11
97 71 115 72 6 0 52 -75 104 -167z m-744 -7 c15 -11 17 -22 12 -68 -8 -79 -30
-118 -67 -118 -30 0 -60 22 -60 45 0 23 21 28 27 7 6 -24 37 -34 52 -19 19 19
12 35 -20 42 -42 9 -55 41 -35 88 12 30 20 37 44 37 15 0 36 -6 47 -14z m192
-18 c6 -7 14 -45 17 -85 6 -64 5 -74 -13 -92 -26 -26 -55 -27 -81 -1 -20 20
-27 70 -13 84 4 4 6 23 4 42 -1 19 3 42 9 50 15 17 64 19 77 2z m1952 -213 c1
-2 -2 -41 -7 -87 -6 -46 -14 -132 -17 -193 -4 -67 -13 -119 -21 -132 -13 -20
-13 -23 1 -23 8 0 15 -7 15 -16 0 -14 -2 -15 -16 -3 -9 8 -42 19 -73 24 -54
10 -56 11 -55 40 3 79 14 183 23 215 5 19 12 64 16 100 9 85 16 93 79 85 28
-4 53 -9 55 -10z m-2458 -354 c6 9 9 10 9 2 0 -7 12 -11 29 -10 16 1 27 6 23
11 -3 5 9 6 29 2 96 -19 249 -28 391 -23 109 4 160 2 164 -5 5 -7 2 -8 -6 -3
-9 5 -11 4 -6 -4 6 -9 11 -9 21 -1 11 9 16 6 21 -14 3 -14 9 -24 13 -22 3 2 7
-16 8 -40 3 -62 -20 -57 -40 9 -8 28 -16 45 -16 36 -1 -9 6 -36 14 -59 8 -23
12 -46 9 -51 -3 -5 -2 -15 3 -21 8 -14 10 -19 12 -44 1 -9 6 -12 14 -8 7 5 6
0 -3 -11 -8 -10 -10 -16 -4 -12 6 3 11 0 11 -8 0 -8 -3 -13 -5 -10 -3 3 -11
-3 -19 -13 -8 -9 -12 -11 -8 -5 7 14 -20 7 -43 -11 -26 -19 -298 -20 -413 -1
-57 10 -112 18 -121 18 -9 1 -14 6 -11 11 4 5 -3 7 -15 4 -14 -4 -20 -2 -15 5
4 6 -2 8 -15 5 -15 -4 -25 0 -32 10 -5 10 -10 13 -10 8 0 -5 -7 -3 -15 4 -14
11 -14 15 2 34 17 19 17 20 1 7 -10 -7 -18 -10 -18 -5 0 5 -5 2 -10 -6 -7 -11
-10 -11 -10 -2 0 7 -5 10 -10 7 -6 -4 -7 -11 -4 -17 5 -7 2 -8 -5 -4 -9 6 -9
12 3 25 9 10 13 21 9 25 -10 10 -12 56 -2 50 4 -2 6 -13 4 -24 -2 -11 1 -22 6
-25 5 -4 6 -11 3 -17 -4 -7 -2 -8 5 -4 6 4 8 12 5 18 -4 6 4 19 17 30 14 10
17 17 9 16 -8 -2 -19 -7 -23 -13 -4 -5 -5 4 -1 20 4 17 10 34 15 39 4 5 5 -2
3 -15 -5 -20 -3 -19 11 6 9 16 14 40 12 52 -2 13 0 23 4 23 5 0 9 5 9 12 0 9
-3 9 -12 0 -7 -7 -16 -12 -22 -12 -5 0 -6 3 -3 7 4 3 1 13 -6 22 -11 14 -10
14 6 2 16 -13 20 -13 28 0z m1794 -1438 c-6 -24 10 -33 18 -10 2 6 4 -2 4 -20
0 -17 13 -58 29 -90 25 -49 34 -59 62 -64 22 -5 37 -2 47 7 20 21 26 17 19
-11 -4 -17 -1 -27 9 -31 9 -3 13 -12 10 -20 -4 -10 2 -17 16 -21 11 -3 21 -10
21 -15 0 -5 -5 -6 -10 -3 -6 3 -15 -6 -20 -20 -5 -14 -14 -24 -19 -21 -5 4
-21 2 -35 -4 -18 -6 -26 -6 -26 1 0 6 -4 7 -10 4 -5 -3 -10 -2 -10 4 0 5 -9
12 -19 16 -20 6 -20 6 0 26 11 11 17 25 13 31 -5 8 -10 6 -14 -6 -5 -17 -7
-17 -20 -1 -10 13 -11 15 0 13 7 -2 15 3 18 11 3 9 0 12 -10 8 -17 -6 -42 20
-45 46 -1 13 4 17 14 13 11 -5 13 -2 9 10 -3 8 -6 18 -6 20 0 3 -4 2 -10 -1
-5 -3 -10 -1 -10 4 0 6 -5 10 -11 8 -6 -1 -14 4 -16 11 -3 7 3 12 14 12 11 0
14 3 7 8 -9 6 -26 39 -22 45 1 1 -4 12 -11 25 -7 14 -8 22 -1 22 15 0 12 19
-5 36 -12 12 -12 18 -2 29 10 10 13 7 19 -19 4 -17 5 -41 3 -53z"/>
<path d="M2457 6009 c-77 -8 -90 -17 -119 -72 l-20 -40 27 21 c33 26 95 24
131 -4 23 -19 23 -20 9 -79 -8 -33 -12 -68 -9 -77 3 -9 -2 -43 -11 -76 -8 -33
-15 -68 -14 -78 0 -11 7 6 15 36 8 30 35 125 59 211 25 85 45 158 45 162 0 8
-19 7 -113 -4z"/>
<path d="M2431 5609 c-1 -9 -40 -54 -88 -101 -84 -81 -234 -249 -241 -269 -2
-5 -9 -9 -16 -9 -12 0 -30 -41 -69 -162 -9 -27 -14 -48 -12 -48 7 0 55 90 55
104 0 8 10 23 23 33 27 22 87 107 87 122 0 7 28 40 61 76 34 35 70 78 80 95
11 17 26 33 34 36 8 3 34 25 57 49 35 34 42 47 37 66 -4 13 -7 17 -8 8z"/>
<path d="M5909 4412 c-104 -51 -167 -97 -176 -130 -5 -15 -8 -118 -7 -229 1
-171 4 -206 18 -227 9 -15 20 -26 25 -26 5 0 21 -11 37 -25 41 -37 188 -105
204 -95 10 6 5 14 -19 28 l-32 19 32 7 c17 3 53 6 79 6 39 0 49 4 53 20 5 19
-3 27 -15 14 -3 -3 -60 -8 -127 -10 -131 -6 -123 -9 -179 60 -20 25 -27 77
-11 87 11 7 11 9 -3 9 -9 0 -19 8 -21 18 -3 9 -4 0 -2 -20 2 -21 0 -40 -5 -43
-14 -8 -20 54 -18 179 2 119 2 120 7 36 3 -47 8 -77 11 -66 5 17 17 18 155 17
95 0 143 3 130 9 l-20 9 20 2 c11 2 -43 6 -119 9 -97 3 -141 9 -143 17 -3 9
33 13 146 15 131 3 149 5 141 18 -7 12 -37 16 -140 18 -138 4 -155 -1 -163
-41 -2 -12 -5 -1 -6 24 l-1 46 33 -4 c32 -4 32 -4 7 9 -20 11 -24 20 -21 43 1
17 7 33 12 36 5 3 7 14 3 25 -6 16 -5 17 7 7 9 -9 54 -14 139 -15 91 -1 113
-3 80 -8 -42 -7 -41 -7 13 -5 32 2 61 6 64 9 3 3 -2 17 -11 31 -16 25 -18 25
-146 25 -72 0 -130 3 -130 8 0 4 64 7 142 6 l143 -1 -115 6 c-111 6 -114 7
-90 22 37 25 200 15 207 -12 3 -11 9 -19 14 -19 5 0 4 12 -1 26 -9 22 -8 25 5
20 10 -3 13 -2 10 4 -4 6 -35 10 -69 9 -77 -2 -100 8 -62 28 14 7 26 18 26 23
0 18 -34 9 -111 -28z"/>
<path d="M2002 3108 c3 -7 17 -50 33 -96 15 -46 33 -86 41 -89 7 -3 30 -28 50
-56 45 -63 140 -173 213 -247 30 -30 62 -68 71 -83 l18 -28 0 28 c0 34 -11 48
-60 79 -20 13 -52 47 -72 77 -19 29 -54 68 -76 86 -22 17 -40 37 -40 43 0 18
-62 111 -87 131 -13 10 -23 27 -23 38 0 19 -57 129 -67 129 -3 0 -3 -6 -1 -12z"/>
<path d="M2441 2530 c-1 -14 6 -53 15 -85 9 -33 17 -87 19 -120 1 -34 5 -70 9
-82 5 -16 2 -23 -14 -28 -11 -4 -18 -10 -15 -15 3 -4 -9 -6 -26 -3 -17 2 -37
-1 -47 -9 -11 -9 -14 -10 -8 0 4 7 2 12 -8 12 -8 0 -22 10 -30 22 -22 31 -20
16 5 -38 26 -53 43 -62 144 -71 l72 -6 -34 124 c-19 68 -45 169 -58 224 -13
55 -24 89 -24 75z"/>
</g>
</svg>
