<?xml version="1.0" standalone="no"?>
<!DOCTYPE svg PUBLIC "-//W3C//DTD SVG 20010904//EN"
 "http://www.w3.org/TR/2001/REC-SVG-20010904/DTD/svg10.dtd">
<svg version="1.0" xmlns="http://www.w3.org/2000/svg"
 width="1024.000000pt" height="1024.000000pt" viewBox="0 0 1024.000000 1024.000000"
 preserveAspectRatio="xMidYMid meet">
<metadata>
Created by potrace 1.16, written by Peter Selinger 2001-2019
</metadata>
<g transform="translate(0.000000,1024.000000) scale(0.100000,-0.100000)"
fill="#000000" stroke="none">
<path d="M4118 9740 c-3 -9 -65 -12 -231 -11 -179 1 -227 -1 -227 -11 0 -10
53 -14 243 -16 163 -3 247 -8 257 -15 11 -9 10 -5 -3 15 -9 15 -17 29 -17 30
0 2 217 2 482 0 265 -1 480 -1 477 1 -2 3 -223 8 -490 11 -368 6 -488 5 -491
-4z"/>
<path d="M3712 9446 l3 -25 250 -4 c138 -2 258 -7 267 -11 10 -5 18 -22 21
-44 3 -33 4 -33 5 10 3 80 11 76 -181 78 -186 1 -347 9 -360 17 -5 3 -7 -6 -5
-21z"/>
<path d="M4260 9442 c1 -29 24 -31 515 -38 344 -4 504 -10 514 -18 12 -9 13
-8 8 6 -6 17 9 17 253 12 143 -3 260 -2 260 2 -1 30 -26 31 -782 37 -423 4
-768 3 -768 -1z"/>
<path d="M3611 9338 c-21 -94 -33 -246 -20 -269 6 -12 7 -19 2 -16 -6 4 -15
-35 -22 -91 -24 -188 -37 -333 -31 -341 3 -5 16 -11 30 -13 14 -2 -31 -9 -100
-16 -69 -8 -127 -18 -128 -23 -2 -5 -7 -7 -12 -4 -4 3 -6 -3 -4 -12 9 -36
-262 -906 -279 -896 -6 3 -7 1 -3 -6 7 -10 -35 -155 -67 -231 -5 -14 -11 -32
-13 -40 -2 -8 -7 -23 -13 -35 -10 -19 -98 -287 -206 -625 -115 -360 -149 -560
-149 -885 -1 -408 45 -606 301 -1290 161 -431 250 -677 389 -1075 142 -406
158 -464 170 -615 17 -219 26 -335 39 -500 9 -104 17 -229 18 -278 2 -73 5
-88 20 -93 9 -3 17 -12 17 -20 0 -16 -26 -19 -35 -4 -21 34 -39 -16 -54 -155
-11 -101 -6 -114 44 -118 28 -2 30 1 38 47 l10 49 14 -39 c8 -22 15 -47 14
-58 0 -18 1 -18 21 0 17 16 20 27 15 74 -2 30 -1 66 2 80 7 24 8 23 14 -10 3
-19 4 -74 2 -122 -3 -68 -1 -88 10 -88 19 0 33 -44 45 -140 19 -151 39 -274
56 -335 9 -33 17 -88 17 -122 0 -43 4 -60 12 -57 8 3 15 -9 18 -33 9 -55 90
-213 109 -213 11 0 37 79 46 140 6 36 11 250 12 475 1 226 5 428 9 450 4 22 4
58 0 80 -4 22 -12 164 -18 315 -6 151 -16 359 -22 462 -10 181 -6 278 12 278
5 0 9 -9 9 -19 0 -33 11 -51 31 -51 10 0 19 6 19 13 0 8 4 7 10 -3 7 -11 10
-11 10 -2 0 10 35 12 171 7 115 -4 168 -2 164 5 -3 5 1 10 10 10 9 0 13 -4 10
-10 -4 -6 37 -10 114 -10 69 0 121 -4 121 -9 0 -30 -80 -38 -422 -43 l-218 -3
2 -75 c1 -47 3 -59 5 -32 2 23 10 42 16 43 7 0 102 3 212 5 110 2 246 6 301 8
l102 4 10 -31 c10 -31 10 -31 12 18 2 28 3 74 2 102 0 29 3 53 9 53 5 0 9 11
9 25 0 16 -6 25 -15 25 -8 0 -15 5 -15 11 0 6 9 8 20 4 17 -5 20 -2 20 22 0
15 2 75 5 133 4 97 3 102 -9 65 l-13 -40 -184 -2 c-101 0 -248 -3 -326 -6
l-143 -5 0 26 c0 26 -1 26 -18 -8 l-17 -35 -115 2 c-128 2 -278 20 -297 35 -7
6 -13 20 -14 32 0 12 -3 15 -6 8 -3 -8 -2 -41 1 -75 l7 -62 57 -1 c31 -1 123
-5 203 -9 l146 -8 17 24 c15 21 17 21 13 4 -3 -11 -8 -36 -11 -56 l-6 -35 -68
7 c-92 10 -171 19 -207 23 -16 3 -52 6 -80 7 -34 2 -52 8 -56 18 -4 9 -10 -10
-14 -41 -7 -55 -25 -82 -25 -38 0 50 -259 799 -547 1585 -83 227 -241 689
-268 785 -83 295 -92 617 -29 965 34 189 63 289 229 790 181 544 311 947 369
1145 25 85 57 193 71 240 l25 85 -4 -85 c-3 -63 -2 -75 4 -45 5 22 9 59 9 81
1 27 6 44 15 47 8 3 97 16 197 28 169 20 183 21 194 5 11 -14 45 -16 313 -16
304 0 343 -4 368 -38 10 -14 12 -11 12 22 0 30 -4 40 -19 43 -20 6 -20 30 0
26 16 -4 14 22 -4 37 -9 8 -15 30 -15 59 0 25 -5 53 -10 61 -8 11 -10 -2 -8
-45 l3 -60 -30 2 c-16 1 -73 4 -125 7 -52 3 -180 6 -285 8 l-190 3 -9 -38
c-13 -52 -40 -47 -43 8 -22 374 -67 735 -92 735 -4 0 -13 -23 -20 -52z m141
-6494 c21 -4 35 -10 33 -14 -3 -5 1 -41 8 -82 15 -83 14 -369 -2 -438 -6 -29
-6 -50 0 -63 6 -10 9 -20 7 -21 -2 -1 -15 -7 -30 -13 -26 -12 -27 -11 -31 25
-3 31 -4 28 -5 -14 -1 -33 -13 -76 -33 -119 -27 -61 -32 -66 -46 -52 -10 10
-17 40 -19 89 -2 40 -11 145 -19 233 -28 311 -29 346 -10 413 l18 62 46 0 c25
0 63 -3 83 -6z"/>
<path d="M4366 9019 c4 -19 11 -38 16 -44 6 -6 198 -12 518 -15 l510 -5 0 27
c0 21 -6 29 -22 32 -13 3 -242 7 -509 8 -392 3 -489 6 -503 17 -14 12 -15 10
-10 -20z"/>
<path d="M5405 8910 c-4 -7 -174 -9 -511 -8 -398 2 -504 0 -504 -9 0 -8 13
-13 30 -13 17 0 30 -5 30 -12 0 -10 2 -10 8 -1 6 10 203 18 337 13 17 -1 157
-2 312 -3 219 -2 283 -5 283 -14 0 -7 10 -13 23 -13 20 0 23 4 19 30 -5 33
-17 46 -27 30z"/>
<path d="M4439 8748 c7 -21 16 -24 92 -29 46 -4 275 -10 509 -14 300 -5 429
-10 439 -18 10 -9 10 -4 -3 20 -9 18 -24 36 -34 41 -9 5 -241 13 -514 16
l-498 8 9 -24z"/>
<path d="M6047 8674 c-3 -3 -126 -8 -274 -11 -147 -3 -269 -6 -270 -8 -2 -1 5
-25 15 -54 l18 -52 254 0 c140 -1 280 -4 310 -7 53 -7 56 -9 78 -53 22 -44 40
-124 63 -279 6 -41 14 -95 19 -120 l9 -45 -4 50 c-3 28 -7 80 -11 116 -5 53
-3 69 10 82 21 20 20 29 -4 57 -18 21 -20 22 -21 4 0 -10 -11 17 -23 61 -12
44 -30 97 -39 118 -16 37 -16 37 6 32 27 -6 270 -45 316 -51 19 -2 40 -9 48
-15 7 -6 13 -9 13 -6 0 3 -13 15 -30 27 -30 21 -62 28 -249 55 -118 17 -142
18 -140 8 4 -25 -3 -34 -23 -31 -18 2 -24 10 -26 38 -4 56 -11 77 -26 83 -8 3
-16 3 -19 1z"/>
<path d="M4815 8255 c-423 -60 -819 -228 -1131 -479 -277 -223 -532 -568 -663
-897 -116 -293 -164 -553 -164 -874 2 -385 81 -712 258 -1066 238 -475 619
-858 1080 -1084 228 -112 457 -183 710 -221 165 -25 505 -25 663 -1 62 10 123
15 135 12 14 -4 18 -3 9 3 -8 5 15 14 70 26 184 39 463 151 628 251 33 20 65
33 71 29 7 -4 9 -3 6 3 -8 13 40 46 54 38 5 -4 8 -1 7 7 -2 7 5 13 14 13 9 0
20 4 25 9 5 5 2 6 -7 2 -8 -4 -6 -1 4 8 10 8 23 13 28 10 5 -3 7 0 6 7 -2 6 3
14 11 17 9 3 11 0 6 -9 -5 -8 1 -5 13 5 26 23 29 34 5 15 -15 -11 -14 -10 1 9
20 23 42 31 30 10 -5 -9 -2 -8 9 1 10 8 15 16 12 19 -7 7 25 42 38 42 5 0 3
-8 -4 -17 -7 -10 4 -2 24 16 43 40 50 56 10 20 -16 -13 -1 4 32 39 33 34 64
62 69 62 6 0 -8 -19 -29 -42 -22 -24 -5 -9 38 32 42 41 77 77 77 79 0 3 -18
-13 -40 -34 -22 -21 -40 -35 -40 -29 0 14 75 86 82 78 4 -3 32 25 63 63 64 77
144 189 126 179 -19 -12 -13 3 25 65 20 32 41 56 47 52 6 -3 7 -1 3 5 -9 15
12 54 24 47 6 -4 7 1 3 11 -4 12 -3 15 5 10 8 -5 10 -1 5 10 -4 12 -3 15 5 10
8 -5 10 -1 5 10 -5 13 -3 15 7 9 8 -5 11 -4 7 3 -10 15 3 43 16 35 5 -3 7 -1
4 4 -4 6 13 58 37 116 98 233 148 444 168 701 31 416 -64 884 -252 1244 -21
40 -35 56 -25 30 6 -17 -156 -99 -182 -92 -32 9 -132 -41 -143 -72 l-10 -26
-19 23 c-10 13 -43 65 -74 114 -77 125 -248 335 -343 424 -69 65 -204 172
-252 201 -12 7 -14 12 -5 17 6 5 35 40 65 80 80 108 159 203 168 203 14 0 200
-142 270 -206 171 -156 316 -327 426 -502 74 -118 103 -155 59 -77 -219 392
-606 751 -1040 965 -221 110 -464 187 -703 226 -139 22 -509 27 -637 9z m356
-9 c19 -8 69 -17 112 -21 42 -4 79 -11 82 -15 2 -4 -24 -43 -57 -88 -35 -46
-65 -77 -69 -71 -4 7 -8 5 -12 -4 -9 -23 -71 -49 -109 -45 -36 3 -36 3 -90 49
-21 17 -38 26 -38 20 0 -6 -4 -11 -10 -11 -15 0 -150 144 -142 151 4 4 47 10
95 14 49 4 103 13 120 20 41 18 76 18 118 1z m-690 -191 c15 -55 39 -138 53
-185 19 -66 22 -87 13 -96 -7 -6 -50 -26 -97 -44 -235 -91 -421 -215 -617
-409 -177 -177 -283 -348 -424 -686 -5 -14 -6 -10 -2 12 3 21 0 40 -8 50 -13
16 -12 17 4 4 18 -14 17 -16 21 39 1 8 4 20 7 25 3 6 9 19 12 30 6 19 6 19 -6
1 -7 -11 -23 -32 -37 -48 l-25 -29 -35 17 c-47 23 -46 22 -24 39 10 7 28 12
39 9 16 -4 25 4 43 40 12 26 18 46 14 46 -13 0 -33 -17 -31 -26 5 -28 -1 -35
-22 -24 -15 9 -24 8 -37 -2 -15 -12 -16 -11 -3 5 12 15 11 17 -5 18 -11 1 -22
1 -26 0 -9 -1 9 48 24 66 6 7 8 13 4 13 -3 0 -17 -18 -31 -41 -20 -30 -23 -44
-15 -53 5 -8 7 -21 4 -30 -5 -13 -14 -15 -38 -10 -17 3 -33 10 -36 14 -3 4
-30 19 -60 34 -59 30 -82 46 -62 46 6 0 30 34 53 75 46 84 49 87 69 75 13 -8
9 -20 -19 -75 -32 -64 -32 -67 -15 -80 37 -28 58 -18 87 41 27 55 29 56 62 51
60 -10 150 -61 153 -87 3 -16 6 -19 12 -11 17 28 -4 52 -74 85 -107 51 -106
51 -137 16 -16 -17 -28 -34 -28 -38 0 -3 -4 -8 -10 -10 -6 -2 -11 1 -11 7 0 6
-5 11 -11 11 -5 0 -7 -5 -3 -12 4 -6 3 -8 -4 -4 -6 3 -15 -2 -21 -11 -14 -24
-14 -10 0 21 7 14 16 23 20 20 5 -3 6 2 3 11 -4 10 -2 15 6 13 18 -4 19 52 2
69 -22 22 -43 12 -65 -31 -19 -37 -21 -38 -35 -20 -13 17 -14 17 -9 2 4 -10 2
-18 -4 -18 -6 0 -8 -3 -6 -7 3 -5 -5 -17 -16 -28 -11 -11 -18 -15 -15 -10 31
75 42 94 51 88 6 -3 7 -1 3 5 -17 27 150 295 282 452 185 220 419 404 680 535
173 86 327 147 361 142 10 -1 25 -38 42 -102z m1776 -162 l23 -13 -65 -122
c-35 -68 -68 -124 -74 -126 -6 -2 -30 8 -54 22 l-44 26 55 108 c82 161 77 155
110 135 15 -9 37 -22 49 -30z m-806 -113 c258 -47 499 -141 714 -282 126 -82
277 -206 269 -220 -4 -6 -2 -8 3 -5 13 8 46 -27 36 -37 -5 -4 -1 -6 7 -4 8 2
14 -3 12 -10 -1 -8 1 -11 6 -8 11 7 53 -36 56 -58 1 -8 13 -24 26 -36 12 -11
19 -20 15 -20 -4 0 0 -9 10 -20 10 -11 21 -18 25 -15 4 2 7 -2 7 -9 0 -8 36
-68 81 -134 45 -66 78 -122 75 -126 -4 -3 -1 -6 5 -6 11 0 122 -217 122 -238
0 -7 4 -12 8 -12 5 0 9 -6 10 -12 0 -7 14 -52 31 -100 62 -180 76 -272 76
-498 0 -172 -4 -224 -23 -325 -26 -133 -86 -322 -138 -432 -37 -77 -39 -83
-25 -83 13 0 107 235 135 337 14 48 25 81 25 72 2 -32 -60 -230 -101 -325 -90
-210 -189 -355 -363 -530 -163 -165 -285 -253 -485 -354 -391 -197 -897 -244
-1325 -124 -33 10 -73 18 -90 18 -33 1 -109 25 -102 33 3 2 22 -3 42 -11 21
-9 43 -16 49 -16 6 1 -27 16 -74 35 -47 19 -91 33 -98 30 -7 -3 -11 -1 -8 4 3
4 -17 18 -44 31 -27 13 -46 28 -43 33 3 6 1 7 -5 3 -16 -10 -74 22 -66 36 4 7
3 8 -5 4 -13 -9 -114 52 -106 64 3 4 -3 7 -13 6 -9 0 -16 5 -14 12 1 8 -2 11
-7 8 -9 -6 -91 49 -91 61 0 3 10 -2 23 -13 l22 -19 -19 23 c-11 12 -25 21 -32
18 -6 -2 -22 7 -35 22 l-24 27 26 -20 c14 -11 7 -3 -15 17 -22 20 -44 35 -48
32 -5 -3 -7 0 -6 8 2 7 -4 12 -12 10 -8 -2 -12 0 -7 4 10 10 -23 45 -36 37 -5
-3 -8 -2 -4 3 3 5 -27 44 -67 87 -40 42 -71 77 -68 77 6 0 -71 94 -80 98 -5 2
-8 10 -8 18 0 8 -4 14 -8 14 -12 0 -83 123 -132 226 -57 121 -72 157 -94 224
-23 73 -63 230 -78 305 -8 46 -13 145 -13 285 1 224 11 308 55 471 11 41 23
85 26 99 3 14 9 27 15 28 5 2 7 7 4 12 -6 10 45 133 57 138 5 2 6 7 3 12 -3 4
2 13 10 20 8 7 15 18 15 26 0 20 53 103 67 104 6 0 37 39 69 88 102 152 219
280 367 400 68 55 87 75 42 46 -50 -32 -23 2 29 39 53 36 84 48 70 26 -3 -6
20 6 52 26 72 46 283 151 335 167 21 6 36 14 34 18 -2 3 4 6 13 6 30 -1 182
37 182 46 0 4 24 8 53 9 28 0 75 4 102 9 108 16 376 11 496 -10z m1990 -1709
c4 -3 10 -30 13 -60 l7 -54 -153 8 c-84 4 -156 9 -160 12 -5 2 -8 28 -8 57 l0
53 148 -5 c81 -2 150 -7 153 -11z m-4163 -134 l3 -55 -98 -6 c-54 -3 -132 -8
-174 -11 l-76 -5 -7 49 c-10 73 -6 77 67 74 34 -2 91 0 127 5 36 4 85 7 110 6
l45 -1 3 -56z m4016 -227 c189 -33 206 -37 206 -51 0 -108 -118 -588 -141
-574 -4 3 -5 -5 -1 -17 3 -14 1 -19 -6 -14 -8 5 -10 1 -5 -10 4 -12 2 -15 -8
-12 -9 3 -14 19 -14 41 0 19 -2 35 -5 34 -11 -3 -50 25 -46 32 3 4 -10 8 -29
8 -19 0 -33 -2 -30 -5 2 -3 -1 -14 -7 -25 -9 -17 -7 -24 15 -41 21 -17 23 -24
14 -36 -17 -21 -38 -24 -30 -3 4 11 3 14 -5 9 -7 -4 -12 -2 -12 6 0 10 -3 9
-11 -2 -8 -12 -10 -9 -6 12 2 17 0 25 -6 21 -6 -4 -8 0 -4 11 4 9 3 15 -2 12
-5 -4 -17 20 -27 51 -18 62 -48 103 -73 103 -12 0 -10 -5 6 -18 15 -11 36 -56
59 -122 33 -94 60 -140 84 -140 4 0 18 17 30 37 l22 37 -22 18 c-17 14 -21 24
-16 44 l7 25 31 -18 c18 -11 35 -30 39 -47 4 -15 15 -36 24 -46 15 -17 11 -50
-7 -50 -5 0 -6 5 -3 10 3 6 2 10 -4 10 -6 0 -8 8 -5 18 4 12 3 14 -4 4 -11
-16 -3 -64 9 -56 5 3 6 -2 2 -11 -5 -14 -8 -14 -15 -3 -7 9 -8 7 -5 -10 3 -13
1 -20 -5 -16 -5 4 -7 21 -4 38 5 31 5 31 -15 -7 -23 -43 -43 -55 -63 -37 -8 6
-27 15 -43 19 -15 4 -28 14 -28 22 -1 22 -25 99 -31 99 -3 0 -3 -14 1 -31 6
-25 4 -30 -6 -23 -8 5 -18 9 -24 9 -5 0 -8 9 -7 20 3 15 1 17 -10 7 -11 -9
-14 -7 -15 11 -2 17 0 19 7 7 9 -13 10 -13 10 0 1 8 7 3 16 -12 20 -38 29 -36
9 1 -9 19 -11 32 -5 36 6 3 10 1 10 -6 0 -7 2 -10 5 -8 9 10 -7 48 -23 54 -14
5 -15 4 -4 -6 18 -19 14 -33 -5 -18 -16 13 -17 12 -4 -3 7 -10 11 -19 7 -19
-3 -1 -11 -2 -16 -3 -15 -2 -30 -28 -22 -41 3 -5 -2 -4 -11 3 -9 8 -22 10 -29
6 -7 -4 -10 -4 -6 1 4 4 0 14 -9 20 -16 12 -13 20 26 100 23 48 40 89 38 92
-6 5 -100 -186 -100 -205 0 -6 -7 -11 -16 -10 -9 2 -15 -3 -13 -10 1 -8 -2
-11 -8 -7 -5 3 -10 2 -10 -2 0 -5 -7 -18 -15 -29 -8 -10 12 37 44 106 92 193
144 359 172 553 7 48 17 87 23 87 6 0 87 -13 180 -30z m-3808 -600 c37 -37 78
-115 71 -133 -7 -19 -242 -167 -265 -167 -22 0 -36 15 -82 88 -33 53 -33 53
-14 78 19 25 229 161 250 163 7 1 25 -12 40 -29z m3592 -142 c142 -89 147 -98
100 -188 -22 -43 -40 -66 -53 -68 -11 -1 -71 30 -135 71 -91 58 -116 78 -118
98 -5 40 60 157 87 159 3 0 56 -32 119 -72z m-3498 -58 c20 11 25 10 37 -5 11
-16 10 -20 -8 -33 -19 -13 -19 -15 17 -79 19 -35 34 -66 32 -68 -4 -4 -277
-55 -294 -55 -17 0 -47 57 -40 75 3 8 24 24 47 36 80 40 149 91 149 110 0 19
22 31 31 16 4 -5 15 -4 29 3z m2827 -672 c61 -108 93 -172 93 -182 0 -4 -78
-56 -84 -56 -5 0 -166 284 -166 293 0 4 78 64 87 67 1 0 33 -55 70 -122z
m-2040 -1 l22 -19 -46 -87 c-26 -47 -49 -88 -53 -91 -4 -3 -19 -31 -34 -62
-16 -32 -30 -58 -33 -58 -13 0 -104 52 -101 59 2 4 40 76 86 159 l83 152 27
-17 c15 -9 37 -25 49 -36z m1189 -226 c3 -14 7 -34 9 -43 2 -13 -3 -18 -21
-18 -18 0 -24 6 -24 20 0 19 -5 21 -60 18 l-60 -3 0 -52 0 -53 39 0 c33 0 39
-3 43 -25 7 -32 2 -35 -44 -35 -38 0 -38 0 -38 -40 l0 -40 60 0 c53 0 60 2 60
20 0 24 25 27 34 4 12 -31 6 -63 -13 -74 -31 -16 -147 -13 -165 5 -20 20 -22
300 -2 327 9 12 30 18 77 20 85 4 98 0 105 -31z m-241 -5 c3 -11 4 -88 3 -171
l-3 -150 -75 -8 c-123 -14 -120 -17 -120 172 0 117 3 161 13 169 12 11 139 21
165 13 7 -2 15 -13 17 -25z"/>
<path d="M5365 7700 c11 -4 71 -17 134 -29 115 -22 233 -58 348 -105 88 -37
236 -115 245 -129 4 -7 8 -8 8 -4 0 4 21 -7 46 -25 26 -18 65 -46 87 -61 78
-55 257 -232 347 -342 95 -116 209 -307 260 -435 12 -30 26 -64 30 -75 5 -11
14 -38 20 -60 6 -22 15 -49 20 -60 15 -32 41 -171 56 -295 17 -145 17 -269 -1
-390 -7 -52 -16 -115 -19 -140 -6 -43 -5 -42 8 10 43 166 46 492 6 695 -109
553 -478 1035 -975 1275 -90 44 -210 89 -290 110 -169 45 -229 58 -300 63 -28
3 -41 1 -30 -3z"/>
<path d="M5020 7664 c-14 -2 -65 -9 -115 -15 -161 -19 -362 -79 -516 -153
-144 -69 -363 -229 -468 -342 -119 -127 -260 -334 -275 -404 -1 -3 -9 -16 -18
-30 -28 -41 -84 -198 -112 -310 -33 -134 -46 -246 -46 -387 0 -108 1 -112 23
-115 16 -2 21 -9 19 -23 -2 -11 -10 -24 -18 -28 -16 -9 -19 -53 -4 -62 6 -3
10 -12 10 -18 0 -7 -4 -6 -11 3 -9 12 -10 12 -5 -3 3 -10 6 -28 6 -38 0 -11 5
-17 10 -14 6 3 10 18 10 32 0 35 6 27 14 -19 6 -32 5 -36 -13 -31 -18 5 -18 3
-5 -64 20 -97 23 -102 38 -80 13 16 14 16 20 -5 3 -13 6 -26 6 -31 0 -10 -23
-4 -33 8 -5 6 -6 1 -2 -10 4 -11 16 -48 26 -83 18 -56 22 -61 39 -52 17 9 20
7 20 -11 0 -15 -5 -19 -15 -15 -20 7 -20 7 16 -73 25 -56 34 -68 50 -64 15 4
18 2 13 -11 -3 -9 -11 -13 -17 -9 -6 3 -7 1 -3 -6 6 -9 11 -9 21 -1 9 8 14 5
18 -11 4 -15 2 -19 -9 -15 -11 4 -12 2 -1 -14 6 -11 15 -20 20 -20 4 0 6 -4 3
-9 -3 -5 2 -8 12 -7 11 1 16 -6 15 -17 0 -10 2 -16 5 -13 8 9 34 -33 27 -44
-4 -6 -3 -9 2 -8 4 2 8 -1 8 -7 0 -5 -4 -9 -10 -7 -11 4 25 -40 43 -51 7 -5 9
-13 6 -19 -4 -6 -3 -8 3 -5 16 10 56 -26 60 -54 3 -23 3 -23 -11 -4 -9 11 -16
16 -16 12 0 -13 92 -107 105 -107 6 0 20 9 31 21 10 11 28 26 39 32 12 6 5 -7
-17 -31 -21 -23 -38 -45 -37 -50 2 -13 109 -105 116 -99 3 4 0 15 -8 24 -13
17 -13 17 5 3 17 -13 21 -12 47 20 16 19 29 30 29 25 0 -6 -14 -25 -30 -44
-17 -18 -30 -37 -30 -42 0 -4 26 -28 58 -52 64 -50 73 -49 107 11 11 17 23 32
28 32 5 0 3 -10 -5 -22 -50 -77 -50 -81 16 -87 4 -1 6 -7 3 -15 -3 -9 4 -21
19 -31 13 -8 24 -12 23 -8 -3 19 2 23 19 14 16 -8 21 -4 35 25 9 18 21 34 27
34 13 0 12 -10 -5 -40 -20 -36 -18 -47 10 -54 15 -4 25 -14 25 -24 0 -11 14
-25 34 -35 39 -18 44 -15 70 47 9 22 19 37 21 34 3 -3 -4 -27 -15 -53 -11 -26
-19 -49 -18 -50 15 -12 71 -35 76 -31 3 3 0 6 -6 6 -7 0 -12 5 -12 11 0 13 48
3 68 -13 11 -9 11 -13 0 -19 -10 -7 -10 -9 2 -9 20 0 37 28 45 74 4 20 11 34
15 31 5 -3 0 -30 -10 -60 -18 -53 -18 -54 1 -60 10 -3 29 -8 41 -11 21 -6 22
-5 8 11 -15 19 -11 19 77 -2 20 -4 23 0 29 36 4 23 10 41 14 41 4 0 4 -19 -1
-42 -12 -61 -11 -68 7 -68 8 0 12 5 9 11 -5 7 4 8 26 4 19 -3 89 -9 157 -12
120 -6 122 -5 122 16 0 11 5 21 10 21 6 0 10 -9 10 -20 0 -18 7 -20 59 -20 72
0 271 33 363 61 37 11 68 21 68 23 0 2 -7 22 -15 45 -8 23 -10 39 -5 36 5 -3
14 -21 20 -40 6 -19 15 -35 20 -35 4 0 38 13 74 30 l67 29 -21 41 c-11 22 -17
40 -12 40 4 0 14 -16 21 -35 7 -19 18 -35 24 -35 39 1 266 144 372 235 l40 34
-33 34 c-17 18 -32 37 -32 42 0 5 16 -8 36 -29 l36 -38 47 46 c26 26 51 43 56
39 4 -5 5 -2 1 5 -4 7 10 33 37 65 60 71 115 155 168 257 24 47 47 87 52 88 4
2 5 8 1 13 -3 5 -1 9 4 9 6 0 8 9 5 20 -3 11 0 20 6 20 6 0 11 9 11 21 0 11 4
18 9 15 5 -3 12 13 17 37 l8 42 4 -34 c3 -29 6 -33 28 -28 23 4 25 2 20 -22
-5 -19 -1 -16 14 13 11 21 17 43 14 47 -3 5 -1 9 5 9 6 0 7 7 4 17 -4 11 -3
14 5 9 16 -9 15 6 0 36 -17 30 -48 26 -48 -8 0 -16 6 -24 18 -25 9 0 4 -5 -13
-10 -20 -6 -32 -5 -37 4 -11 17 -10 39 1 33 10 -7 24 40 16 53 -3 5 13 8 36 7
38 -1 40 -2 35 -28 -3 -16 -2 -28 2 -28 11 0 40 115 47 185 4 33 8 70 11 82 3
18 0 21 -24 19 -15 -2 -35 -7 -45 -11 -10 -4 -20 -5 -24 -2 -9 10 -3 158 8
179 6 11 8 22 5 26 -8 7 -8 7 -39 -67 -25 -60 -26 -65 -9 -77 16 -12 15 -13
-8 -14 -14 0 -40 -15 -63 -37 -37 -37 -41 -38 -125 -44 -48 -3 -169 -7 -269
-8 -200 -2 -213 1 -268 59 -28 29 -30 37 -31 108 -1 42 -2 99 -3 125 -1 30 -5
46 -11 42 -6 -4 -7 -11 -4 -17 4 -6 2 -8 -4 -4 -6 3 -9 14 -7 24 1 9 -3 23
-11 30 -8 7 -14 9 -14 5 0 -4 -5 -1 -10 7 -8 12 -10 8 -11 -15 -1 -17 -3 -23
-6 -12 -2 9 -9 14 -15 11 -8 -5 -9 6 -4 36 18 112 89 245 148 277 28 14 71 18
278 23 l245 5 -130 9 c-80 5 -175 5 -250 -1 -134 -11 -174 -28 -231 -96 -18
-20 -74 -58 -144 -94 -63 -33 -179 -94 -257 -136 -78 -42 -159 -79 -180 -82
-97 -16 -95 -15 -88 -43 9 -38 -13 -80 -59 -107 l-41 -24 -10 -152 c-9 -136
-8 -157 7 -198 22 -55 22 -62 3 -37 -8 11 -17 17 -21 14 -7 -8 -23 -220 -17
-230 8 -15 23 -8 23 11 0 21 32 39 38 22 2 -6 8 -8 14 -5 6 4 14 0 19 -7 8
-12 10 -12 18 0 6 9 10 2 13 -23 2 -20 0 -36 -4 -36 -4 0 -8 7 -8 15 0 21 -18
19 -23 -2 -3 -10 -5 -5 -6 12 -1 25 -6 31 -26 33 -18 1 -25 -3 -25 -16 0 -26
11 -34 27 -21 9 8 13 8 13 1 0 -6 -4 -13 -9 -16 -4 -3 -6 -27 -3 -54 4 -44 2
-51 -27 -74 -16 -14 -34 -28 -39 -30 -5 -1 -12 -20 -15 -40 l-6 -37 82 -3 82
-3 6 -70 c4 -38 8 -153 10 -255 l4 -185 -97 -3 -98 -3 -1 53 c0 29 -4 71 -8
93 -8 37 -9 34 -10 -30 -1 -38 -6 -77 -11 -85 -13 -19 -13 -7 -1 190 23 380
24 390 7 390 -9 0 -23 12 -32 26 -12 17 -19 21 -24 14 -6 -9 -9 -9 -15 -1 -5
9 -10 9 -21 0 -11 -9 -14 -8 -14 2 0 30 13 59 26 59 8 0 15 -10 15 -22 1 -13
5 -1 11 26 6 31 5 59 -1 77 -5 16 -6 29 -2 29 5 0 12 -10 16 -22 l7 -23 8 25
c8 24 8 24 9 3 1 -28 21 -31 21 -4 0 10 7 21 15 25 10 4 15 19 15 48 -1 42 -1
43 -15 18 l-14 -25 1 28 c2 15 5 27 9 27 13 0 33 62 22 68 -7 5 -7 27 2 72 7
36 17 138 23 228 l9 162 -40 42 c-31 33 -39 38 -35 20 8 -31 0 -28 -14 6 -9
22 -12 24 -15 9 -7 -30 18 -78 51 -98 26 -16 28 -19 10 -19 -27 0 -47 23 -72
80 -18 40 -33 54 -153 131 -129 82 -136 85 -164 73 -36 -16 -111 -18 -120 -4
-4 6 -10 8 -15 5 -5 -3 -11 4 -15 15 -4 11 -10 18 -14 15 -5 -2 -17 5 -27 18
-19 21 -19 21 1 7 18 -14 19 -14 7 2 -8 9 -20 14 -27 12 -16 -7 -45 54 -45 95
0 18 -24 54 -80 120 -44 52 -78 96 -76 98 2 3 56 -11 119 -31 112 -35 114 -35
156 -19 33 13 50 14 86 6 l45 -10 0 28 c0 15 -5 31 -10 34 -22 14 4 25 55 25
47 0 57 -3 71 -26 16 -23 16 -26 1 -42 -16 -15 -15 -18 5 -39 12 -13 17 -23
11 -23 -6 0 -18 -3 -26 -6 -11 -4 -16 2 -19 18 -2 17 -11 24 -30 26 -16 2 -28
-1 -28 -5 0 -12 61 -69 80 -75 15 -5 22 -68 8 -68 -5 0 -8 -11 -8 -25 0 -21
21 -38 129 -109 93 -60 140 -85 167 -88 36 -3 38 -1 45 32 4 19 10 95 14 168
l6 132 -67 0 c-58 0 -65 2 -54 15 12 15 10 64 -5 98 -6 14 -2 17 22 17 l30 0
-5 -55 -4 -55 28 0 c33 1 77 29 56 37 -7 3 -19 17 -27 32 -18 35 -2 71 38 85
23 8 31 6 55 -17 16 -16 39 -27 55 -27 21 0 27 -5 27 -22 0 -17 -3 -19 -12
-10 -16 16 -45 15 -51 -2 -4 -10 -1 -13 9 -9 10 4 14 -3 14 -23 0 -22 -3 -25
-12 -16 -18 18 -38 14 -38 -8 0 -16 7 -20 38 -20 21 0 43 5 50 12 9 9 12 7 12
-10 0 -19 -6 -21 -62 -24 l-63 -3 -2 -55 c-1 -30 -6 -102 -11 -160 -12 -146 6
-165 76 -82 26 30 65 59 109 82 37 19 103 54 145 78 68 38 78 48 84 78 7 38
33 46 41 14 6 -22 18 -26 28 -10 3 6 1 10 -4 10 -6 0 -11 5 -11 10 0 6 16 10
36 10 27 0 88 28 236 106 123 66 195 110 187 114 -8 5 -10 22 -6 49 14 107
112 160 207 111 37 -19 80 -67 80 -89 0 -6 10 -11 22 -11 20 0 20 -1 5 -18
-10 -10 -17 -26 -17 -35 0 -50 -82 -127 -136 -127 -14 0 -40 -14 -60 -32 l-35
-33 163 -1 c167 0 238 -8 238 -24 0 -6 -72 -10 -177 -11 -197 0 -254 -7 -260
-29 -3 -9 -1 -11 4 -5 11 13 33 17 33 6 0 -5 11 -12 25 -15 25 -6 35 -26 13
-26 -6 0 -8 -3 -5 -6 4 -4 14 -1 24 7 15 12 16 12 10 -3 -3 -10 -1 -20 5 -24
7 -4 8 -3 4 4 -9 15 -3 15 29 0 14 -6 25 -15 25 -19 0 -5 10 -13 23 -19 22
-11 22 -11 2 6 -12 10 -14 15 -5 12 8 -3 21 -15 27 -29 7 -14 13 -18 13 -9 0
12 2 13 9 1 5 -7 14 -10 20 -7 6 4 11 2 11 -4 0 -6 -8 -13 -17 -17 -40 -14
-159 -72 -178 -86 -18 -14 -8 -15 113 -10 80 4 132 2 132 -4 0 -5 15 -8 33 -6
44 4 97 -6 97 -18 0 -6 -4 -7 -10 -4 -17 11 -11 -7 7 -20 14 -11 17 -34 18
-161 1 -85 -2 -154 -8 -161 -7 -10 -4 -13 11 -13 27 0 89 71 120 139 15 31 32
90 38 131 l12 75 2 -55 c1 -30 4 -49 7 -42 2 6 9 10 14 6 5 -3 9 0 9 5 0 6 -4
11 -10 11 -5 0 -10 10 -10 23 1 21 1 21 15 3 17 -22 20 -20 34 14 9 24 10 24
10 3 1 -12 -3 -25 -9 -28 -16 -10 -12 -19 15 -32 24 -11 25 -10 25 21 0 116
-49 363 -100 506 -46 131 -74 186 -101 200 -20 11 -20 11 -5 -19 21 -40 20
-62 -4 -68 -11 -3 -20 -13 -20 -22 0 -12 -2 -13 -9 -3 -4 7 -6 23 -4 35 2 12
-3 31 -11 42 -12 15 -15 16 -16 5 0 -13 -1 -13 -10 0 -14 22 -12 27 10 33 20
5 28 27 10 27 -6 0 -19 15 -30 33 l-20 32 0 -30 c-1 -28 -2 -29 -15 -11 -7 10
-18 15 -24 12 -5 -4 -12 -2 -16 4 -3 5 0 10 8 10 25 0 28 28 4 32 -12 2 -22 9
-21 16 1 6 2 27 3 45 0 18 10 43 22 56 l21 22 -43 57 c-71 94 -213 232 -239
232 -17 0 -21 -4 -15 -17 4 -10 10 -28 12 -40 5 -20 1 -23 -25 -23 -17 0 -34
5 -38 11 -4 8 -9 7 -14 -2 -6 -9 -12 -8 -26 5 -9 10 -52 43 -96 73 -82 58 -98
73 -75 73 8 0 22 10 33 22 10 13 12 17 4 11 -20 -15 -40 -12 -75 11 -23 15
-32 17 -48 6 -11 -7 -22 -8 -26 -3 -3 5 -14 12 -24 16 -10 4 -15 12 -12 18 5
8 10 8 18 0 16 -16 27 -14 21 3 -3 8 -14 13 -24 11 -16 -3 -80 55 -79 72 1 3
-5 10 -13 14 -10 7 -9 9 4 9 9 0 23 -7 32 -15 8 -8 17 -11 20 -6 3 4 -14 19
-38 32 -25 13 -43 26 -40 30 9 16 -157 72 -306 103 -143 30 -369 44 -470 30z
m284 -290 c-1 -27 -146 -439 -159 -452 -11 -11 -26 17 -120 223 -53 116 -103
220 -111 233 -13 20 -13 23 5 30 11 4 102 5 203 2 l183 -5 -1 -31z m567 -157
c40 -27 79 -91 79 -130 0 -46 -29 -96 -64 -111 -50 -21 -141 -27 -163 -11 -10
8 -14 15 -10 15 5 0 -8 19 -27 42 -41 47 -46 86 -20 140 36 76 135 102 205 55z
m-1363 -1 c74 -39 107 -115 82 -190 -12 -38 -33 -53 -111 -80 -47 -17 -89 -21
-54 -6 16 7 17 9 3 9 -9 1 -25 4 -35 7 -15 5 -16 4 -3 -6 13 -10 13 -11 0 -7
-8 2 -15 8 -15 14 0 6 -11 22 -25 36 -49 49 -53 57 -47 104 6 54 30 89 77 114
41 23 91 24 128 5z m638 -434 c1 -10 2 -42 3 -71 1 -73 19 -56 27 27 10 90 26
77 19 -15 -6 -76 -6 -77 10 -44 8 18 15 42 15 52 0 10 4 20 9 24 18 10 21 -13
7 -56 -7 -24 -21 -69 -30 -100 -18 -63 -41 -78 -85 -56 -18 9 -30 30 -47 82
-13 39 -28 78 -34 87 -5 10 -10 23 -10 29 0 16 23 5 25 -12 2 -9 12 -33 24
-55 l20 -39 -5 35 c-4 19 -10 53 -15 75 -5 24 -4 44 2 50 6 6 9 6 10 0 2 -28
11 -66 24 -106 l14 -44 -1 75 c0 41 0 79 1 84 2 15 16 -4 17 -22z m-1118 -61
c62 -32 85 -64 90 -126 3 -40 0 -62 -12 -80 -20 -30 -85 -65 -123 -65 -22 0
-25 -2 -13 -10 19 -13 4 -12 -42 0 -21 6 -40 16 -44 21 -4 8 0 7 14 0 38 -20
35 -11 -5 18 -55 40 -80 103 -63 158 15 47 36 71 75 88 43 19 80 18 123 -4z
m997 -205 c59 -25 62 -90 4 -119 -29 -14 -42 -15 -68 -6 -68 24 -69 107 -1
132 23 9 28 8 65 -7z m-874 -502 c7 -8 14 -50 17 -93 5 -92 9 -89 -133 -93
l-90 -2 110 -6 c79 -4 38 -6 -145 -7 -140 -1 -244 2 -230 6 l25 7 -26 7 c-25
6 -26 11 -33 88 -4 45 -4 84 -1 88 7 6 172 14 376 18 95 2 119 0 130 -13z
m1274 -547 l19 -32 4 33 3 33 97 -3 97 -3 0 -27 c1 -14 7 -33 14 -42 11 -13
11 -16 -2 -16 -8 0 -20 7 -27 15 -7 8 -19 15 -27 15 -9 0 -13 -6 -9 -15 3 -8
1 -15 -4 -15 -6 0 -10 17 -10 38 l0 38 -40 -4 c-22 -2 -40 -8 -40 -14 0 -5 8
-8 18 -6 9 1 19 -2 22 -7 3 -6 -5 -11 -17 -13 -13 -2 -23 -7 -23 -11 0 -4 13
-6 29 -3 16 2 32 -1 35 -7 5 -7 -8 -11 -39 -11 -25 0 -44 3 -41 8 2 4 1 23 -4
42 l-8 35 -1 -42 c-1 -53 -16 -55 -55 -5 l-28 37 4 -37 c2 -21 0 -38 -4 -38
-4 0 -8 13 -8 29 0 16 -3 36 -6 45 -12 31 30 17 51 -17z m993 -52 c94 -40 134
-124 99 -208 -17 -39 -37 -57 -74 -63 -15 -3 -44 -9 -63 -14 -27 -7 -42 -6
-70 8 -19 9 -33 19 -30 22 3 3 -5 19 -18 37 -12 17 -22 36 -22 41 0 6 -5 12
-11 14 -20 7 0 83 32 121 27 32 67 53 107 56 7 1 29 -6 50 -14z m-2328 -47
c74 -38 112 -143 75 -208 -8 -14 -14 -22 -15 -18 0 4 -16 -4 -36 -17 -25 -17
-52 -25 -83 -26 -46 -2 -46 -2 -11 -9 34 -7 34 -7 5 -8 -31 -1 -83 16 -55 17
13 1 13 2 0 11 -20 13 -33 12 -24 -2 4 -7 3 -8 -5 -4 -6 4 -9 11 -6 15 2 5 -5
17 -18 27 -21 19 -21 19 -7 -1 14 -18 14 -19 -2 -7 -10 8 -14 20 -11 29 4 10
2 14 -4 10 -7 -5 -9 1 -6 15 3 17 2 19 -5 10 -16 -23 -24 31 -10 69 19 55 40
81 83 100 53 24 82 24 135 -3z m1873 -462 c65 -28 106 -102 93 -171 -9 -48
-72 -115 -107 -114 -22 1 -22 1 4 9 32 10 57 28 57 42 0 5 -12 0 -27 -11 -30
-22 -83 -29 -123 -16 -57 18 -115 99 -107 151 16 97 116 150 210 110z m-1353
-26 c44 -22 90 -91 90 -134 0 -32 -28 -102 -37 -92 -4 3 -17 -4 -29 -15 -15
-14 -42 -24 -76 -28 l-53 -5 40 -7 40 -6 -38 -2 c-73 -2 -152 59 -141 110 5
19 4 21 -5 9 -8 -11 -11 -3 -11 35 0 62 26 107 77 134 49 26 94 26 143 1z"/>
<path d="M6465 6004 c-6 -1 -22 -5 -37 -8 -53 -12 -75 -61 -42 -97 14 -15 13
-19 -10 -42 -33 -34 -33 -59 2 -98 24 -27 38 -33 83 -37 123 -10 193 74 114
136 -24 19 -24 20 -5 37 25 22 25 46 2 75 -16 20 -81 40 -107 34z m92 -170
c17 -23 16 -34 -4 -56 -22 -24 -118 -25 -145 -1 -35 31 -19 71 33 82 44 9 100
-3 116 -25z"/>
<path d="M6154 5990 c-50 -20 -85 -100 -44 -100 13 0 20 7 20 18 0 48 88 78
129 45 37 -30 21 -54 -60 -91 -88 -41 -119 -71 -119 -113 l0 -31 118 7 c123 8
135 10 130 27 -3 7 -42 10 -106 9 -56 -1 -102 1 -102 6 1 14 44 40 111 68 84
35 89 40 89 86 0 34 -5 42 -32 59 -34 21 -96 25 -134 10z"/>
<path d="M3485 5489 c23 -75 82 -223 114 -284 20 -38 83 -140 139 -225 109
-164 222 -290 322 -360 30 -22 76 -55 103 -75 26 -19 47 -32 47 -27 0 4 -27
27 -60 51 -33 24 -74 58 -93 75 -18 17 -53 50 -79 73 -25 22 -52 51 -60 62 -9
12 -33 41 -55 64 -86 92 -201 265 -266 402 -53 111 -97 221 -97 241 0 7 -5 16
-11 20 -8 4 -9 -1 -4 -17z"/>
<path d="M3338 5019 c-54 -34 -98 -65 -98 -71 0 -14 42 -88 50 -88 7 0 156 90
200 120 l23 16 -27 42 c-14 23 -32 42 -39 42 -6 0 -56 -28 -109 -61z"/>
<path d="M6937 4933 c-12 -21 -20 -40 -17 -43 2 -3 48 -32 101 -66 l96 -61 22
44 c11 24 21 45 21 47 0 7 -180 116 -190 116 -6 0 -21 -17 -33 -37z"/>
<path d="M5173 3973 c-10 -3 -13 -38 -13 -124 l0 -120 58 3 57 3 3 123 3 122
-48 -1 c-26 0 -54 -3 -60 -6z"/>
<path d="M6553 7866 l-32 -12 52 -40 c74 -58 73 -57 69 -16 l-4 37 20 -31 c27
-42 74 -74 108 -74 36 0 23 -12 -22 -19 l-35 -6 64 -61 64 -61 -4 46 -4 46 23
-44 c15 -28 36 -50 58 -61 19 -10 49 -24 66 -33 l32 -15 -24 57 c-50 114 -64
135 -79 111 -3 -5 -1 -10 4 -10 6 0 11 -5 11 -10 0 -6 -8 -5 -20 2 -11 7 -20
17 -20 21 0 20 -130 113 -220 156 -35 17 -66 30 -69 30 -3 -1 -20 -7 -38 -13z"/>
<path d="M7590 6746 c21 -23 26 -41 32 -114 3 -48 7 -130 7 -182 l1 -96 -30
-17 c-25 -15 -30 -24 -30 -58 0 -36 13 -54 22 -29 2 6 17 13 33 15 76 13 87
18 106 48 23 39 24 47 3 47 -10 0 -14 -6 -10 -15 4 -10 -1 -15 -15 -15 -11 0
-17 5 -14 10 4 7 -3 9 -22 5 -27 -5 -27 -5 -4 5 24 10 24 12 18 108 -4 53 -7
126 -7 161 0 60 -2 65 -37 98 -51 46 -88 67 -53 29z"/>
<path d="M7640 5856 c0 -9 -7 -16 -15 -16 -9 0 -15 -9 -15 -22 0 -13 -9 -34
-20 -48 -27 -34 -25 -43 13 -81 17 -18 31 -36 30 -41 -2 -4 4 -8 13 -8 8 0 13
3 11 8 -3 4 59 7 136 7 l142 0 3 25 3 25 -161 -3 c-88 -2 -160 -1 -160 3 0 4
10 15 22 25 20 16 21 20 8 36 -14 18 -14 18 6 1 19 -15 40 -18 153 -16 72 0
131 5 131 9 0 5 3 15 6 24 5 14 -13 16 -161 16 -151 0 -166 2 -154 16 11 13
36 15 166 12 89 -2 152 1 150 6 -2 5 -64 8 -139 7 -114 -2 -138 0 -152 14 -14
15 -16 15 -16 1z"/>
<path d="M7630 5605 c0 -9 -9 -15 -22 -15 -42 0 -51 -13 -32 -47 17 -30 13
-70 -6 -58 -6 4 -10 -5 -10 -19 0 -14 5 -26 10 -26 6 0 10 7 10 15 0 10 11 15
38 15 68 1 72 1 72 10 0 5 -15 11 -32 13 -18 2 29 5 104 5 98 2 139 6 145 15
4 7 20 18 35 24 15 7 32 22 38 34 8 15 9 19 1 15 -18 -11 -53 4 -47 20 4 12
-20 14 -149 14 -131 0 -155 -2 -155 -15z"/>
<path d="M7662 5428 c21 -30 23 -45 26 -199 4 -163 4 -168 -18 -186 -12 -10
-32 -28 -45 -39 -23 -22 -100 -74 -110 -74 -4 0 -3 5 1 12 4 7 -7 1 -25 -11
-18 -13 -37 -34 -43 -47 -10 -21 -16 -23 -48 -18 -49 8 -68 -13 -50 -56 11
-26 15 -28 28 -18 12 10 11 5 -3 -19 -21 -35 -31 -34 -46 4 -14 39 -23 20 -9
-21 6 -20 14 -36 16 -36 2 0 42 29 87 65 45 35 127 98 182 139 119 89 185 149
185 167 0 9 -3 10 -8 3 -4 -6 -16 -16 -27 -22 -20 -10 -20 -7 -17 158 l3 169
-33 18 -33 18 45 5 c56 6 31 20 -36 20 l-45 0 23 -32z"/>
<path d="M3085 4585 c4 -11 25 -69 47 -130 22 -60 46 -128 55 -150 39 -105
111 -309 173 -492 77 -226 93 -261 124 -261 12 0 49 -2 84 -4 37 -2 62 1 62 7
0 6 3 6 8 0 4 -6 36 -12 72 -13 86 -4 159 -11 193 -18 16 -3 27 -1 27 5 0 6 6
8 14 5 7 -3 20 2 29 10 24 24 27 20 28 -31 1 -30 4 -37 6 -20 2 15 12 31 22
37 38 20 502 -3 546 -27 7 -4 7 -3 0 4 -5 6 -41 21 -80 33 -38 13 -84 29 -102
37 l-32 13 20 35 c22 36 17 48 -8 18 -8 -10 -5 1 6 24 l21 42 -22 15 c-12 9
-26 16 -30 16 -9 0 -68 -88 -68 -102 0 -14 -44 -2 -110 31 -61 32 -65 47 -29
109 23 40 23 37 3 56 -25 26 -40 19 -79 -39 l-38 -55 -51 29 c-28 16 -70 40
-94 54 l-43 24 40 47 c47 54 49 61 20 76 -26 14 -51 -6 -76 -61 l-16 -38 -29
17 c-15 9 -40 27 -55 40 -16 13 -43 36 -61 49 l-32 26 35 42 c19 24 35 50 35
58 0 17 -30 32 -39 19 -25 -36 -65 -82 -71 -82 -5 0 -44 34 -89 76 l-81 77 45
40 c50 45 56 62 24 70 -14 4 -32 -5 -59 -30 -37 -33 -60 -37 -60 -9 0 15 -55
69 -66 65 -5 -1 -22 14 -38 35 l-30 36 49 50 c37 38 45 50 31 50 -11 0 -35
-12 -55 -27 l-36 -26 29 31 c36 39 20 42 -24 6 -24 -21 -28 -29 -19 -40 6 -8
9 -14 6 -14 -3 0 -32 35 -63 78 -69 92 -80 104 -69 77z"/>
<path d="M7095 4439 c-4 -5 -4 -26 0 -45 4 -26 10 -34 21 -30 18 7 -61 -95
-111 -144 l-35 -34 0 37 c0 33 -3 37 -26 37 -25 0 -25 -2 -19 -42 4 -24 11
-44 16 -46 13 -5 -69 -96 -124 -138 -44 -34 -50 -36 -59 -21 -15 27 -30 20
-26 -13 4 -39 -26 -66 -179 -163 -133 -83 -183 -111 -190 -104 -2 3 -7 24 -10
46 -3 23 -9 41 -13 41 -22 0 -40 -14 -40 -32 0 -11 -5 -28 -11 -39 -18 -34
-19 -59 -3 -52 8 3 14 2 14 -1 0 -3 -25 -18 -56 -33 -46 -22 -57 -24 -65 -12
-8 14 -10 12 -13 -12 -1 -12 -30 -27 -53 -28 -9 -1 -13 15 -13 50 0 43 -3 50
-17 47 -14 -2 -20 -18 -27 -65 l-9 -61 -58 -22 c-65 -23 -76 -34 -26 -25 75
12 94 15 132 20 78 9 201 18 272 19 l73 1 0 -34 c0 -59 10 -27 12 38 1 34 6
68 12 76 16 20 66 31 66 14 0 -8 4 -7 13 4 19 27 71 38 96 20 15 -10 21 -11
21 -2 0 7 3 9 7 5 4 -3 13 4 20 16 l12 23 1 -22 c0 -16 4 -21 15 -17 8 4 15
12 15 20 0 8 6 11 15 8 11 -5 13 -2 8 12 -4 11 -3 15 4 11 6 -4 14 -1 16 5 3
7 6 0 6 -16 1 -36 11 -28 21 16 l8 33 1 -32 c1 -40 13 -42 31 -5 l13 27 7 -30
6 -30 18 48 c10 26 22 47 27 47 5 0 4 -11 -1 -25 -9 -23 -8 -25 9 -16 10 6 21
8 24 5 6 -6 27 52 27 76 0 24 26 46 33 28 3 -7 6 -2 6 12 2 39 12 70 22 64 5
-3 9 2 9 11 0 9 7 26 15 38 14 21 145 411 145 431 0 5 -6 4 -13 -3 -8 -6 -18
-7 -23 -2 -16 15 -62 22 -69 10z"/>
<path d="M6418 3259 c-3 -27 -10 -55 -15 -60 -9 -9 -325 -22 -545 -23 -99 0
-107 -1 -112 -20 -11 -40 -6 -63 12 -64 41 -3 179 -1 200 3 12 2 22 -1 22 -7
0 -6 5 -7 13 -2 6 5 28 9 47 8 19 -1 46 -2 60 -3 25 -1 205 7 205 9 0 1 19 2
43 3 33 2 42 -1 40 -13 -2 -11 -17 -15 -53 -16 -28 0 -122 -4 -210 -9 -88 -4
-207 -9 -265 -9 -101 -1 -136 -8 -125 -26 3 -4 125 -6 272 -3 148 3 266 3 263
1 -5 -5 -348 -18 -477 -18 -62 0 -63 -1 -64 -27 0 -16 -3 -22 -6 -15 -3 8 -10
5 -23 -10 -17 -22 -26 -23 -262 -30 -515 -16 -744 -26 -761 -33 -18 -8 -23
-21 -32 -100 -5 -46 -4 -49 10 -31 18 23 58 26 643 47 235 8 368 16 378 24 9
6 22 36 29 66 10 41 14 47 14 24 1 -29 2 -30 51 -30 27 0 50 4 50 9 0 5 7 3
16 -5 13 -10 17 -10 23 0 7 10 13 10 30 1 12 -6 43 -9 69 -7 l47 3 -55 4 c-30
2 22 7 115 10 94 3 172 2 175 -1 14 -17 182 -19 305 -4 72 9 137 18 146 21 15
4 67 106 84 161 6 22 5 22 -22 8 -15 -8 -37 -15 -48 -15 -12 0 -26 -5 -33 -12
-7 -7 -12 -8 -12 -2 0 7 -21 6 -62 -2 -35 -7 -76 -15 -93 -18 -42 -7 -67 -13
-88 -21 -16 -7 -18 -3 -15 26 l3 34 100 22 c55 12 120 25 145 28 25 3 59 10
75 14 17 5 42 12 57 15 19 4 28 14 33 37 4 17 5 33 2 35 -3 3 -42 -2 -88 -11
-143 -27 -280 -56 -295 -62 -12 -4 -13 8 -7 71 3 42 4 76 1 76 -3 0 -8 -23
-10 -51z"/>
<path d="M6247 2844 c-2 -2 -123 -4 -269 -4 -230 -1 -267 -3 -272 -16 -18 -46
-24 -45 293 -43 165 1 304 -1 309 -5 10 -6 22 24 22 56 0 13 -9 17 -40 16 -21
0 -41 -2 -43 -4z"/>
<path d="M5690 2750 c0 -5 -10 -10 -22 -10 -22 -1 -23 -1 -4 -15 19 -14 18
-15 -10 -16 -16 -1 -40 -1 -54 -1 -14 0 -2 -5 25 -12 48 -12 49 -13 20 -19
-51 -10 -195 -16 -564 -23 -195 -3 -362 -8 -370 -9 -9 -2 -33 -4 -53 -4 -36
-1 -38 -3 -38 -33 l0 -31 173 7 c94 3 319 9 500 13 264 5 332 4 352 -7 16 -8
29 -10 34 -4 8 8 22 174 14 174 -1 0 -3 -4 -3 -10z"/>
<path d="M3995 2340 c3 -80 8 -234 11 -342 5 -149 4 -201 -5 -212 -7 -8 -11
-25 -9 -38 l3 -23 285 2 c181 2 278 0 265 -6 -17 -8 -18 -10 -2 -10 19 -1 23
-29 5 -36 -26 -9 -149 -14 -345 -14 l-203 -1 0 -31 0 -31 168 6 c92 4 212 9
268 12 114 6 134 -2 134 -58 l0 -30 78 6 c42 3 266 10 497 16 231 6 432 12
447 14 18 1 29 -3 31 -13 3 -9 5 8 6 37 l1 52 118 1 c181 1 406 9 420 14 6 2
12 18 12 36 0 26 -3 30 -17 23 -24 -11 -514 -18 -522 -7 -3 5 -105 5 -226 1
-121 -4 -351 -11 -512 -16 -213 -6 -296 -12 -307 -22 -14 -11 -16 -8 -16 27 0
22 3 43 6 46 4 4 8 74 9 156 2 83 6 189 10 236 l7 85 -24 0 c-13 0 -32 -10
-43 -22 l-20 -23 -4 25 c-3 23 -4 24 -12 5 -8 -19 -8 -19 -15 3 -5 18 -9 20
-20 11 -8 -6 -14 -7 -14 -2 0 5 -7 10 -15 10 -8 0 -15 -4 -15 -9 0 -17 -27 -7
-38 15 l-11 22 0 -23 c-1 -13 -5 -20 -11 -17 -5 3 -10 1 -10 -6 0 -7 -11 -2
-25 11 l-25 23 0 -24 c0 -19 -2 -21 -10 -9 -8 12 -11 13 -19 1 -7 -11 -9 -11
-14 0 -3 9 -6 7 -6 -6 -1 -16 -3 -17 -10 -5 -6 8 -7 18 -5 22 3 4 0 8 -5 8 -6
0 -11 -5 -11 -10 0 -6 -8 -5 -19 2 -11 7 -18 15 -16 18 2 3 -5 6 -15 6 -10 0
-16 -4 -13 -9 3 -5 -4 -6 -16 -2 -11 3 -21 2 -21 -3 0 -6 -11 -9 -25 -8 -14 0
-25 4 -25 9 0 4 -5 7 -11 7 -5 0 -7 -5 -3 -12 4 -7 3 -8 -4 -4 -7 4 -12 15
-12 24 0 14 -2 15 -10 2 -16 -25 -22 -5 -36 117 l-13 118 4 -145z"/>
<path d="M6260 2257 c0 -17 -47 -40 -62 -31 -6 4 -14 0 -19 -7 -5 -8 -9 -9 -9
-3 0 15 -40 11 -49 -5 -6 -9 -10 -6 -15 11 -3 13 -9 19 -13 13 -10 -13 -36
-13 -45 -1 -4 6 -13 4 -22 -3 -12 -10 -16 -10 -16 -2 0 8 -7 6 -17 -5 -17 -16
-18 -16 -23 7 l-6 24 -17 -30 c-11 -20 -16 -24 -17 -12 0 21 -8 22 -32 0 -17
-15 -18 -15 -19 8 0 15 -3 18 -6 9 -13 -34 -25 -41 -39 -23 -10 14 -15 16 -25
6 -18 -18 -29 -16 -30 5 0 15 -1 15 -8 -2 -5 -14 -10 -16 -15 -8 -11 18 -36
14 -36 -5 0 -15 -2 -16 -10 -3 -5 8 -10 11 -11 5 0 -5 -4 -1 -8 10 -10 24 -17
-20 -26 -160 -3 -49 -10 -134 -16 -189 -9 -73 -8 -100 0 -105 6 -4 35 -4 64 0
79 11 435 11 417 -1 -11 -7 -6 -9 18 -7 35 2 36 4 17 65 -6 18 -3 22 13 22 26
0 36 31 61 190 25 165 34 240 27 240 -3 0 -6 -6 -6 -13z"/>
<path d="M5570 1521 c-8 -4 -235 -14 -505 -21 -269 -6 -494 -16 -500 -21 -5
-5 23 -10 70 -10 110 -2 126 -2 155 4 14 3 188 8 387 12 320 6 365 5 385 -9
20 -14 23 -14 40 1 37 34 12 69 -32 44z"/>
<path d="M4011 1205 c0 -55 -4 -164 -8 -242 -5 -118 -8 -141 -20 -132 -10 9
-13 3 -13 -31 l0 -42 93 6 c143 10 361 12 375 3 6 -5 12 -18 12 -30 0 -49 -5
-50 -231 -54 -133 -2 -216 1 -224 7 -9 8 -14 -8 -19 -67 -3 -43 -13 -105 -20
-138 -8 -33 -13 -61 -11 -63 4 -5 1033 24 1360 38 132 6 282 10 333 10 135 0
164 17 256 153 51 76 62 122 24 108 -13 -4 -98 -9 -190 -10 -92 -1 -181 -6
-198 -11 l-31 -9 7 47 c3 26 8 50 11 55 2 4 103 7 224 7 l219 0 0 29 c0 23 5
30 22 33 26 3 49 70 95 271 23 100 25 120 13 127 -8 5 -19 5 -25 0 -7 -6 -16
-5 -23 2 -9 9 -12 9 -12 -2 0 -16 -56 -20 -78 -6 -7 4 -12 1 -12 -8 0 -20 -1
-20 -36 -1 -26 13 -30 13 -40 -1 -9 -12 -13 -12 -17 -2 -3 8 -9 4 -15 -12
l-11 -25 0 24 c-1 18 -4 21 -14 12 -8 -6 -17 -8 -20 -4 -4 3 -7 -1 -7 -11 0
-9 -4 -14 -10 -11 -5 3 -10 18 -10 33 -1 23 -2 25 -11 9 -6 -9 -14 -15 -19
-12 -5 3 -12 0 -15 -5 -4 -7 -19 -8 -36 -5 -17 4 -29 2 -29 -3 0 -6 -8 -8 -18
-5 -35 9 -49 -34 -72 -217 -6 -47 -16 -100 -21 -118 -10 -32 -17 -57 -18 -75
-1 -5 -5 -5 -11 -2 -5 3 -10 -1 -10 -9 0 -9 -5 -16 -11 -16 -5 0 -7 6 -3 13 4
6 -3 3 -15 -8 -19 -16 -24 -17 -31 -5 -8 13 -10 13 -10 0 0 -13 -1 -13 -10 0
-8 12 -10 12 -11 -5 0 -11 -3 -14 -6 -7 -2 6 -9 12 -14 12 -6 0 -8 -4 -5 -8 2
-4 -6 -8 -19 -8 -13 0 -21 4 -18 9 3 5 -4 6 -17 2 -16 -5 -20 -4 -15 5 4 7 -2
6 -16 -3 -23 -15 -122 -17 -136 -4 -3 4 -14 2 -24 -4 -11 -6 -19 -6 -19 0 0 5
-15 6 -37 0 -26 -5 -40 -4 -45 4 -4 7 -8 8 -8 2 0 -7 -39 -10 -107 -10 -60 1
-113 -2 -118 -6 -6 -4 -71 -7 -145 -7 -74 1 -142 0 -150 -3 -21 -6 -22 52 -4
176 18 123 25 283 14 310 -7 16 -9 16 -9 4 -1 -22 -30 -32 -47 -18 -11 9 -14
8 -14 -2 0 -11 -2 -11 -10 1 -6 9 -10 10 -10 3 0 -7 -9 -10 -22 -7 -43 10 -63
10 -80 2 -14 -7 -18 -4 -18 9 0 12 -3 14 -11 6 -6 -6 -18 -9 -26 -6 -8 3 -19
0 -24 -8 -7 -12 -9 -12 -9 1 0 13 -2 13 -9 1 -7 -12 -13 -12 -24 -3 -7 7 -17
9 -20 5 -4 -3 -9 1 -13 10 -5 13 -10 14 -25 6 -11 -6 -19 -6 -19 0 0 10 -19 9
-36 -2 -7 -4 -15 0 -18 10 -5 12 -9 14 -18 5 -19 -19 -36 -14 -41 11 -2 12 -5
-23 -6 -78z m1424 -580 c0 -19 -9 -20 -150 -26 -207 -9 -574 -19 -730 -20 -71
-1 -138 -5 -147 -10 -16 -9 -16 -8 0 21 14 24 24 30 52 30 19 0 100 3 180 6
156 6 650 19 740 19 48 0 55 -2 55 -20z"/>
</g>
</svg>
